<?xml version="1.0" encoding="UTF-8" standalone="no"?><svg xmlns="http://www.w3.org/2000/svg" xmlns:xlink="http://www.w3.org/1999/xlink" clip-rule="evenodd" stroke-miterlimit="10" viewBox="0 0 221 31"><desc>SVG generated by Keynote</desc><defs></defs><g transform="matrix(1.00, 0.00, -0.00, -1.00, 0.0, 31.0)"><text xml:space="preserve" font-family="Aller,Aller" font-size="37.6" fill="#A7D3A9" transform="matrix(1.00, 0.00, -0.00, -1.00, -1.4, 2.2)">B</text><text xml:space="preserve" font-family="Aller,Aller" font-size="37.6" fill="#A7D3A9" transform="matrix(1.00, 0.00, -0.00, -1.00, 21.0, 2.2)">u</text><text xml:space="preserve" font-family="Aller,Aller" font-size="37.6" fill="#A7D3A9" transform="matrix(1.00, 0.00, -0.00, -1.00, 42.6, 2.2)">n</text><text xml:space="preserve" font-family="Aller,Aller" font-size="37.6" fill="#A7D3A9" transform="matrix(1.00, 0.00, -0.00, -1.00, 64.4, 2.2)">d</text><text xml:space="preserve" font-family="Aller,Aller" font-size="37.6" fill="#A7D3A9" transform="matrix(1.00, 0.00, -0.00, -1.00, 86.4, 2.2)">l</text><text xml:space="preserve" font-family="Aller,Aller" font-size="37.6" fill="#A7D3A9" transform="matrix(1.00, 0.00, -0.00, -1.00, 97.6, 2.2)">e</text><text xml:space="preserve" font-family="Aller,Aller" font-size="37.6" fill="#A7D3A9" transform="matrix(1.00, 0.00, -0.00, -1.00, 118.5, 2.2)">r</text><text xml:space="preserve" font-family="Aller,Aller" font-size="37.6" fill="#A7D3A9" transform="matrix(1.00, 0.00, -0.00, -1.00, 132.5, 2.2)">T</text><text xml:space="preserve" font-family="Aller,Aller" font-size="37.6" fill="#A7D3A9" transform="matrix(1.00, 0.00, -0.00, -1.00, 149.2, 2.2)">o</text><text xml:space="preserve" font-family="Aller,Aller" font-size="37.6" fill="#A7D3A9" transform="matrix(1.00, 0.00, -0.00, -1.00, 170.9, 2.2)">o</text><text xml:space="preserve" font-family="Aller,Aller" font-size="37.6" fill="#A7D3A9" transform="matrix(1.00, 0.00, -0.00, -1.00, 192.7, 2.2)">l</text><text xml:space="preserve" font-family="Aller,Aller" font-size="37.6" fill="#A7D3A9" transform="matrix(1.00, 0.00, -0.00, -1.00, 203.9, 2.2)">s</text></g></svg>