<?xml version="1.0" encoding="UTF-8" standalone="no"?><svg xmlns="http://www.w3.org/2000/svg" xmlns:xlink="http://www.w3.org/1999/xlink" clip-rule="evenodd" stroke-miterlimit="10" viewBox="0 0 590 146"><desc>SVG generated by Keynote</desc><defs></defs><g transform="matrix(1.00, 0.00, -0.00, -1.00, 0.0, 146.0)"><g><clipPath id="clip0x6000012adb60"><path d="M 2.0 144.0 L 588.0 144.0 L 588.0 2.0 L 2.0 2.0 Z M 1.7 144.3 "></path></clipPath><g clip-path="url(#clip0x6000012adb60)"><g><clipPath id="clip0x6000012a8220"><path d="M 120.3 144.3 C 119.5 144.3 118.7 144.3 117.9 144.2 C 108.8 143.6 101.8 139.1 97.0 130.8 C 94.8 126.9 94.6 126.4 94.6 119.2 C 94.6 112.5 94.9 111.3 96.4 108.6 C 97.8 106.1 98.0 105.4 97.2 104.4 C 95.8 102.8 91.2 103.1 86.8 105.0 C 83.6 106.3 81.8 106.6 74.0 106.6 C 65.6 106.6 64.7 106.4 60.8 104.6 C 56.5 102.5 53.0 101.8 49.9 103.0 L 48.1 104.0 L 50.2 108.9 C 54.5 118.9 52.6 129.0 45.0 136.7 C 39.1 142.5 35.6 144.0 27.0 144.0 C 18.4 144.0 14.8 142.5 9.0 136.7 C 3.8 131.3 1.7 126.3 1.7 119.0 C 1.7 108.9 8.4 99.3 18.1 95.5 C 24.0 93.2 32.1 93.5 37.6 96.3 C 40.8 97.8 41.5 98.0 42.2 97.2 C 44.0 95.1 43.8 90.6 41.9 84.7 C 38.7 75.3 39.4 64.8 43.7 56.3 C 45.1 53.6 45.0 51.4 43.5 48.3 C 42.9 47.1 42.6 47.1 39.7 48.8 C 38.0 49.8 34.5 51.0 31.8 51.5 C 22.9 53.2 14.2 50.4 8.5 44.0 C 3.4 38.4 2.1 35.0 2.1 27.0 C 2.1 20.9 2.3 19.6 4.1 16.0 C 5.2 13.8 7.4 10.6 9.0 9.1 C 12.8 5.3 18.6 2.2 20.9 2.6 C 21.9 2.8 22.9 2.7 23.1 2.3 C 24.0 0.9 34.6 2.2 38.4 4.2 C 43.8 6.9 48.3 11.8 50.5 17.6 C 52.3 21.9 52.5 23.2 52.1 28.2 C 51.9 31.7 51.2 35.0 50.3 37.0 C 48.9 40.0 48.8 40.4 49.9 41.2 C 52.4 43.0 55.7 43.0 60.4 41.1 C 66.2 38.8 73.4 37.5 77.2 38.1 C 81.4 38.8 89.8 41.3 90.3 42.1 C 91.0 43.3 94.7 42.9 96.4 41.5 L 97.9 40.3 L 96.3 37.0 C 94.9 34.3 94.6 32.6 94.6 27.0 C 94.6 20.9 94.9 19.6 96.6 16.0 C 100.7 7.8 108.0 2.7 116.7 1.9 C 119.4 1.7 122.2 1.8 123.0 2.1 C 123.7 2.4 125.0 2.6 125.9 2.5 C 127.9 2.3 133.5 5.4 136.8 8.5 C 147.1 18.0 147.6 33.7 137.9 44.3 C 135.3 47.2 129.1 50.9 127.3 50.6 C 126.9 50.6 125.5 50.9 124.3 51.4 C 121.9 52.4 114.1 52.0 112.9 50.8 C 112.5 50.4 111.7 50.3 111.2 50.5 C 110.7 50.7 109.1 50.2 107.6 49.3 C 102.7 46.2 101.4 50.5 105.2 57.5 C 106.4 59.7 107.5 62.9 107.6 64.5 C 107.7 66.1 108.0 67.6 108.3 67.8 C 109.0 68.5 108.8 77.3 108.1 77.7 C 107.7 77.9 107.6 78.8 107.8 79.6 C 108.2 81.0 105.7 88.0 103.9 90.7 C 102.8 92.4 102.7 95.0 103.7 96.9 C 104.4 98.2 104.6 98.1 108.6 96.3 C 114.6 93.5 122.5 93.2 128.4 95.5 C 130.8 96.4 134.0 98.3 135.6 99.6 C 138.5 102.1 142.9 107.8 142.6 108.9 C 142.6 109.2 143.0 110.4 143.5 111.6 C 144.9 114.5 144.8 124.7 143.5 127.1 C 142.9 128.1 142.5 129.2 142.6 129.6 C 142.8 131.0 138.8 136.0 135.1 139.0 C 130.8 142.5 126.0 144.2 120.3 144.3 Z M 119.1 138.5 C 119.8 138.5 120.7 138.5 121.6 138.4 C 127.0 138.0 129.0 137.1 133.6 132.9 C 139.2 127.8 140.9 117.7 137.3 110.6 C 135.3 106.7 130.2 102.0 126.6 100.7 C 122.3 99.3 118.6 99.1 114.9 100.1 C 112.9 100.7 111.1 101.1 110.8 101.1 C 110.0 101.2 101.9 108.7 102.0 109.2 C 102.2 109.6 101.5 111.2 100.7 112.9 C 97.5 118.9 100.0 127.8 106.4 133.7 C 110.5 137.4 113.6 138.6 119.1 138.5 Z M 35.1 138.0 L 39.9 133.7 C 43.7 130.0 45.0 128.1 45.7 125.5 C 48.1 117.3 46.5 111.2 40.8 105.5 C 37.5 102.2 36.0 101.2 32.4 100.2 C 27.2 98.8 27.1 98.8 22.0 100.1 C 17.4 101.4 14.8 103.1 11.6 107.1 C 5.4 114.7 5.9 125.3 12.5 132.1 C 18.6 138.3 18.5 137.9 27.2 138.0 L 35.1 138.0 Z M 36.4 130.7 C 35.7 130.7 33.5 129.1 31.6 127.1 C 29.7 125.2 27.5 123.5 26.7 123.5 C 24.8 123.5 22.7 121.4 22.7 119.6 C 22.7 118.7 21.1 116.6 19.0 114.5 C 15.2 110.8 14.9 109.9 16.3 108.5 C 17.8 107.0 19.0 107.5 22.9 111.2 C 24.9 113.1 26.8 114.7 27.0 114.7 C 28.4 114.5 30.6 115.9 31.0 117.2 C 31.3 118.1 31.4 118.9 31.3 119.0 C 31.1 119.1 32.6 120.8 34.6 122.8 C 36.5 124.8 37.9 126.4 37.6 126.4 C 37.2 126.4 37.3 126.8 37.8 127.4 C 38.9 128.7 38.0 130.7 36.4 130.7 Z M 109.5 130.6 C 108.7 130.4 108.3 129.7 108.2 128.5 C 108.0 127.2 108.8 125.9 111.6 123.2 C 113.7 121.1 115.2 119.0 115.2 118.0 C 115.2 116.3 116.3 115.3 118.9 114.5 C 119.9 114.2 122.2 112.5 124.1 110.8 C 127.6 107.6 128.1 107.3 130.0 108.1 C 132.1 108.9 131.2 111.3 127.5 114.9 C 125.5 116.9 123.9 119.1 123.9 119.7 C 123.9 121.3 121.8 123.5 120.2 123.5 C 119.5 123.5 117.2 125.1 115.2 127.2 C 112.6 129.7 110.7 130.9 109.5 130.6 Z M 180.2 97.6 C 177.4 97.6 174.4 97.0 172.0 95.9 C 167.6 93.8 166.5 92.6 164.0 87.2 C 162.3 83.4 162.1 82.5 162.4 75.4 C 162.6 68.5 162.9 67.3 164.8 63.7 C 167.1 59.6 172.4 55.4 174.7 56.0 C 175.4 56.2 176.2 56.0 176.5 55.6 C 176.7 55.2 178.7 55.0 181.5 55.2 C 190.1 55.9 195.2 60.6 197.4 69.8 C 200.0 81.0 196.1 91.9 188.0 96.1 C 185.9 97.1 183.1 97.6 180.2 97.6 Z M 513.1 97.6 C 509.4 97.6 508.4 96.8 507.3 93.5 C 505.9 89.0 500.9 77.8 500.2 77.5 C 499.7 77.4 498.9 78.5 498.2 80.0 C 497.6 81.6 496.2 84.6 495.2 86.8 C 494.1 88.9 493.4 91.0 493.4 91.3 C 493.6 92.1 491.4 96.4 490.4 97.0 C 488.9 98.0 482.9 97.6 482.0 96.5 C 481.4 95.8 481.2 92.5 481.4 85.2 C 481.5 79.5 481.4 74.5 481.1 74.2 C 480.9 73.8 480.6 69.5 480.5 64.8 C 480.2 57.1 480.4 56.1 481.4 56.1 C 482.1 56.1 482.9 55.9 483.1 55.6 C 483.9 54.8 485.5 54.9 487.1 55.8 C 488.4 56.5 488.5 57.4 488.5 65.4 C 488.5 72.4 488.7 74.5 489.6 75.2 C 490.5 75.9 490.8 75.6 491.8 73.3 C 495.4 65.0 495.7 64.4 497.5 64.0 C 498.6 63.7 499.8 63.9 500.4 64.4 C 501.0 64.9 501.9 65.0 502.3 64.7 C 502.8 64.4 503.0 64.5 502.8 64.9 C 502.5 65.3 502.9 66.1 503.7 66.8 C 504.5 67.4 505.3 68.9 505.6 70.0 C 506.4 73.2 508.8 77.5 509.5 77.0 C 509.9 76.8 510.0 72.2 510.0 66.5 L 510.0 56.0 L 512.1 56.0 C 514.6 55.0 516.9 54.9 518.5 56.0 C 519.8 57.0 519.8 57.8 518.9 75.7 C 518.5 85.9 517.7 95.1 517.3 95.9 C 516.6 97.3 515.9 97.6 513.1 97.6 Z M 316.7 97.5 C 314.9 97.5 313.6 97.1 313.1 97.0 L 311.0 97.0 L 311.0 76.2 C 311.0 56.0 311.3 55.6 312.7 56.0 C 313.5 56.2 314.4 56.1 314.6 55.7 C 315.0 55.0 326.0 54.8 326.7 55.5 C 326.9 55.8 328.2 56.0 329.6 56.1 C 332.8 56.3 337.8 59.2 340.3 62.3 C 343.0 65.6 344.8 72.9 344.3 78.1 C 343.4 86.7 340.2 92.1 334.2 95.2 C 331.0 96.9 329.4 97.2 322.7 97.4 C 320.5 97.5 318.4 97.5 316.7 97.5 Z M 179.7 88.9 C 183.5 88.9 185.2 87.9 186.4 85.1 C 189.3 78.3 188.3 69.3 184.3 65.3 C 181.8 62.8 180.3 62.5 177.5 63.9 C 173.9 65.8 172.4 68.3 172.0 76.0 L 172.0 83.1 L 174.4 86.0 C 176.5 88.5 177.3 88.9 179.7 88.9 Z M 321.0 88.6 L 324.9 89.0 C 328.4 89.0 329.1 88.2 330.9 86.2 C 336.2 80.3 335.1 68.5 329.0 65.1 C 325.9 63.3 322.4 62.8 321.4 64.0 C 320.9 64.6 320.9 68.9 321.0 76.8 L 321.0 88.6 Z M 222.3 86.7 C 222.0 86.7 221.8 86.5 221.5 86.2 C 221.0 85.8 220.2 85.6 219.7 85.8 C 219.1 86.0 217.8 85.6 216.8 85.0 C 215.1 83.8 214.9 83.8 213.6 84.9 C 212.3 86.1 207.1 86.3 207.1 85.1 C 207.1 84.8 207.0 75.2 207.0 63.7 L 207.0 43.0 L 211.1 43.0 L 215.0 43.0 L 215.0 48.8 L 215.0 55.0 L 219.6 55.0 C 225.2 55.6 230.0 58.7 232.2 62.9 C 234.5 67.2 234.6 75.5 232.4 80.0 C 230.8 83.2 226.6 86.5 224.9 85.8 C 224.4 85.6 223.6 85.8 223.1 86.2 C 222.8 86.5 222.6 86.7 222.3 86.7 Z M 538.6 86.7 C 538.2 86.7 537.9 86.5 537.5 86.2 C 536.9 85.7 535.9 85.5 535.3 85.7 C 533.9 86.3 528.7 85.4 529.3 84.8 C 529.5 84.6 529.4 84.0 529.1 83.6 C 528.7 83.1 528.4 81.9 529.0 80.5 L 530.0 78.0 L 535.3 79.0 C 539.7 79.4 540.4 78.8 541.6 77.5 C 543.2 75.7 542.9 75.5 536.8 75.0 C 529.6 74.4 526.3 70.5 527.0 63.9 C 527.3 61.2 527.9 60.0 530.1 58.1 C 531.8 56.5 533.2 55.8 534.1 56.0 C 534.9 56.2 535.7 56.0 536.0 55.6 C 536.6 54.7 547.3 54.9 550.2 56.0 L 552.0 57.0 L 552.0 67.8 C 551.8 76.9 551.6 78.8 550.3 80.9 C 548.6 83.8 544.7 86.3 542.6 85.8 C 541.8 85.6 540.6 85.8 539.8 86.2 C 539.4 86.5 539.0 86.7 538.6 86.7 Z M 427.7 86.6 C 427.4 86.6 427.2 86.5 426.9 86.2 C 426.5 85.8 425.7 85.6 425.1 85.8 C 424.6 86.0 423.2 85.6 422.2 84.9 C 420.4 83.8 420.2 83.8 419.4 84.9 C 418.7 85.8 417.6 86.2 415.0 86.0 L 411.0 86.0 L 411.0 70.9 C 411.0 57.6 411.6 56.1 412.7 56.1 C 413.3 56.1 414.1 55.9 414.4 55.6 C 415.1 54.9 415.4 54.4 418.2 55.0 L 420.0 56.0 L 421.0 65.5 C 421.2 73.6 421.1 75.3 422.3 76.6 C 423.8 78.3 426.3 78.6 427.6 77.2 C 428.2 76.7 428.5 73.3 428.5 66.8 C 428.5 57.8 428.7 56.5 430.6 56.1 C 430.8 56.0 431.6 55.7 432.3 55.4 C 433.0 55.1 434.6 55.6 435.9 56.0 L 438.0 56.0 L 438.0 67.7 C 438.0 79.1 438.2 79.3 436.2 82.3 C 434.4 85.1 431.2 86.9 430.1 85.8 C 429.9 85.5 429.2 85.7 428.7 86.2 C 428.3 86.5 428.0 86.6 427.7 86.6 Z M 291.7 86.5 C 291.4 86.5 291.1 86.4 290.9 86.2 C 290.5 85.8 289.7 85.6 289.1 85.8 C 288.6 86.0 287.3 85.7 286.4 85.1 C 284.9 84.1 284.5 84.1 283.3 85.0 C 282.6 85.5 280.6 86.0 278.9 86.0 L 276.0 86.0 L 276.0 71.0 C 276.0 57.2 275.9 55.9 277.1 55.6 C 279.0 55.0 281.1 55.0 282.9 55.5 C 284.5 55.9 284.5 56.2 284.5 64.7 C 284.5 72.2 284.7 73.8 286.0 75.8 C 287.1 77.7 287.8 78.2 289.4 78.0 C 292.5 77.6 293.0 75.3 293.0 65.0 L 293.0 56.0 L 295.4 55.0 C 296.6 54.7 298.5 54.7 299.7 55.0 L 302.0 56.0 L 302.0 67.3 C 302.0 73.6 301.6 78.9 301.2 79.1 C 300.9 79.4 300.7 80.2 300.9 80.9 C 301.4 82.6 297.2 86.2 295.1 85.9 C 294.2 85.8 293.1 86.0 292.6 86.3 C 292.3 86.5 292.0 86.6 291.7 86.5 Z M 576.0 86.5 C 575.7 86.5 575.4 86.4 575.2 86.2 C 574.7 85.8 574.0 85.6 573.4 85.8 C 572.9 86.0 571.6 85.7 570.7 85.1 C 569.1 84.0 568.8 84.1 568.0 85.0 C 567.4 85.8 566.1 86.1 563.8 86.0 L 560.0 86.0 L 560.0 64.2 L 560.0 43.0 L 564.8 43.0 L 569.0 43.0 L 570.0 48.8 L 570.0 55.0 L 572.1 55.0 C 573.3 55.1 574.7 55.3 575.3 55.6 C 575.9 55.8 576.8 55.9 577.4 55.8 C 580.6 55.3 588.1 63.5 587.4 66.9 C 587.2 67.9 587.4 69.0 587.7 69.2 C 588.5 69.7 588.5 73.6 587.7 74.1 C 587.3 74.3 587.2 75.1 587.4 75.9 C 588.2 79.2 582.3 86.4 579.1 85.9 C 578.4 85.8 577.4 86.0 576.9 86.3 C 576.6 86.5 576.3 86.6 576.0 86.5 Z M 254.2 86.5 C 253.8 86.5 253.4 86.4 253.2 86.1 C 252.6 85.7 252.0 85.5 251.7 85.8 C 251.0 86.6 247.8 85.4 245.4 83.4 C 242.0 80.5 240.4 76.5 240.4 70.9 C 240.5 62.8 243.1 58.3 249.3 56.0 C 252.0 55.0 259.7 54.8 260.2 55.7 C 260.5 56.1 261.3 56.2 262.1 56.0 C 264.4 55.4 266.6 57.8 266.1 60.4 C 265.9 61.6 265.3 62.8 264.9 63.1 C 264.4 63.3 261.6 63.4 258.6 63.2 C 253.3 62.8 253.0 62.9 251.3 64.7 C 249.1 67.1 249.5 66.8 259.6 67.0 L 268.0 68.0 L 268.0 71.1 C 268.3 76.5 266.1 81.4 262.6 84.0 C 260.9 85.1 258.9 86.0 258.1 86.0 C 257.3 85.9 256.1 86.1 255.4 86.4 C 255.0 86.5 254.6 86.6 254.2 86.5 Z M 388.8 86.5 C 388.4 86.5 388.0 86.4 387.7 86.1 C 387.2 85.7 386.5 85.5 386.3 85.8 C 384.8 87.2 378.6 83.2 376.7 79.4 C 375.2 76.5 374.6 69.0 375.6 65.3 C 376.7 61.5 380.8 56.7 383.9 55.8 C 386.9 54.9 392.1 54.9 392.6 55.7 C 392.9 56.1 393.5 56.2 394.1 56.0 C 396.4 55.2 402.6 61.4 402.9 64.7 C 402.9 65.5 403.2 66.8 403.5 67.5 C 404.6 70.2 403.4 77.3 401.3 80.3 C 399.0 83.7 395.2 86.2 392.8 86.0 C 391.9 85.9 390.6 86.1 389.9 86.4 C 389.6 86.5 389.2 86.6 388.8 86.5 Z M 459.6 86.5 C 459.2 86.5 458.9 86.4 458.7 86.3 C 458.2 86.0 457.0 85.8 456.0 85.9 C 453.9 86.1 450.1 83.6 447.6 80.3 C 444.5 76.1 444.5 65.9 447.6 61.4 C 449.5 58.4 453.7 55.6 455.4 56.0 C 456.1 56.2 456.9 56.1 457.1 55.7 C 457.6 54.8 464.1 54.9 467.9 55.9 C 470.8 56.6 471.1 56.9 471.1 58.7 C 471.1 61.8 469.7 64.6 468.3 64.0 C 467.7 63.7 465.0 63.3 462.3 63.0 C 457.7 62.6 457.3 62.7 456.3 64.2 C 455.7 65.1 455.4 66.2 455.6 66.6 C 455.8 67.0 459.6 67.3 463.9 67.3 C 472.5 67.3 473.3 67.7 473.3 71.9 C 473.3 74.7 471.2 80.4 469.4 82.3 C 467.5 84.5 464.2 86.2 462.6 85.9 C 461.9 85.8 461.0 86.0 460.5 86.3 C 460.2 86.4 459.9 86.5 459.6 86.5 Z M 367.0 86.0 C 365.5 85.9 364.0 85.5 362.9 84.8 C 361.1 83.7 361.0 83.7 360.1 84.9 C 359.4 85.8 358.4 86.2 356.0 86.0 L 353.0 86.0 L 353.0 70.6 C 352.8 57.6 352.6 55.7 353.6 56.0 C 354.1 56.2 354.8 56.1 355.1 55.7 C 355.6 54.9 357.8 54.8 358.6 55.6 C 358.9 55.9 359.7 56.1 360.3 56.1 C 361.4 56.1 361.6 57.4 361.9 65.7 C 362.3 76.4 362.8 77.4 367.5 77.4 C 369.1 77.4 370.1 77.8 370.6 78.8 C 371.6 80.7 371.5 84.1 370.4 85.2 C 369.8 85.8 368.5 86.1 367.0 86.0 Z M 459.2 78.8 C 461.6 78.8 464.3 76.5 463.5 75.1 C 463.3 74.8 461.4 74.5 459.2 74.5 C 454.8 74.5 454.1 75.0 455.7 77.3 C 456.4 78.3 457.5 78.8 459.2 78.8 Z M 254.6 78.8 C 256.8 78.8 258.9 77.5 258.2 75.6 C 257.9 74.8 256.7 74.5 254.2 74.5 C 250.1 74.5 249.1 75.4 250.9 77.4 C 251.8 78.4 253.2 78.9 254.6 78.8 Z M 389.6 78.8 C 390.8 78.7 392.0 78.1 392.8 77.0 C 394.2 74.7 394.5 67.1 393.1 64.6 C 392.4 63.3 391.6 63.0 389.4 63.0 C 386.9 63.0 386.4 63.3 385.4 65.3 C 383.8 68.3 384.2 75.3 386.1 77.4 C 387.1 78.4 388.4 78.9 389.6 78.8 Z M 219.3 78.1 C 222.6 78.1 223.8 76.2 223.8 70.8 C 223.8 66.8 223.5 65.9 222.1 64.5 C 220.5 63.1 216.6 62.4 215.6 63.5 C 214.7 64.4 215.1 73.1 216.1 75.6 C 217.0 77.6 217.6 78.1 219.3 78.1 Z M 573.6 78.0 C 574.7 78.0 575.8 77.3 576.8 76.1 C 578.1 74.4 578.3 73.5 578.0 69.9 C 577.7 66.5 577.2 65.3 575.9 64.3 C 574.2 63.0 570.9 62.5 570.0 63.5 C 569.0 64.5 569.5 74.9 570.7 76.5 C 571.4 77.6 572.5 78.1 573.6 78.0 Z M 540.0 69.0 C 542.3 69.1 542.4 69.0 542.4 66.2 C 542.4 63.5 542.3 63.3 539.9 63.1 C 537.2 62.9 535.5 63.9 535.5 65.9 C 535.5 67.7 537.3 68.9 540.0 69.0 Z M 119.5 46.5 C 122.6 46.5 125.5 46.0 127.5 45.0 C 135.2 41.1 139.1 35.0 139.1 27.0 C 139.1 18.5 135.0 12.4 126.8 8.6 C 122.0 6.4 117.7 6.3 112.7 8.3 C 104.7 11.5 98.6 20.7 99.5 28.2 C 100.4 35.4 104.8 41.6 111.4 44.9 C 113.5 45.9 116.5 46.5 119.5 46.5 Z M 27.4 46.4 C 33.4 46.6 35.8 45.6 41.2 40.2 C 44.5 37.0 45.1 35.9 46.1 31.5 C 47.0 27.3 47.1 26.0 46.3 22.5 C 44.8 16.1 40.3 11.1 33.7 8.3 C 29.0 6.4 24.7 6.4 19.9 8.5 C 7.0 14.0 3.2 29.4 12.2 39.7 C 16.2 44.3 20.6 46.3 27.4 46.4 Z M 17.7 38.4 C 17.2 38.4 16.8 38.1 16.3 37.6 C 14.8 36.2 15.3 35.2 18.9 31.2 C 20.9 29.0 22.7 26.4 22.9 25.3 C 23.3 24.0 24.0 23.2 25.4 22.9 C 26.5 22.6 29.0 20.8 31.1 18.9 C 35.0 15.3 37.4 14.5 38.1 16.6 C 38.9 18.5 38.7 18.9 35.5 22.1 C 33.8 23.8 32.1 26.1 31.7 27.3 C 31.2 28.8 29.9 30.0 27.6 31.3 C 25.8 32.3 23.0 34.3 21.5 35.8 C 19.6 37.6 18.6 38.4 17.7 38.4 Z M 129.8 38.3 C 128.6 38.6 126.7 37.4 124.2 34.9 C 122.3 32.9 120.1 31.3 119.3 31.3 C 117.4 31.3 115.2 29.2 115.2 27.3 C 115.2 26.3 113.9 24.6 111.6 22.7 C 108.2 19.9 107.1 17.3 108.5 15.9 C 109.7 14.7 112.0 15.7 115.5 19.0 C 117.6 21.0 119.7 22.6 120.2 22.6 C 121.3 22.6 123.9 25.3 123.9 26.4 C 123.9 26.9 125.6 29.0 127.6 30.9 C 130.3 33.6 131.2 35.0 131.0 36.3 C 130.9 37.5 130.4 38.2 129.8 38.3 Z M 129.8 38.3 "></path></clipPath><g clip-path="url(#clip0x6000012a8220)"><image xlink:href="../../307F7B78-9DFF-4FB2-906B-586251BFDB10/assets/2D5DF9EB3DADFE688DE863307DD942A9.png" width="788.00" height="220.00" transform="matrix(0.79, 0.00, -0.00, -0.79, -19.0, 160.0)"></image></g></g></g></g></g></svg>