<?xml version="1.0" encoding="UTF-8" standalone="no"?><svg xmlns="http://www.w3.org/2000/svg" xmlns:xlink="http://www.w3.org/1999/xlink" clip-rule="evenodd" stroke-miterlimit="10" viewBox="0 0 792 41"><desc>SVG generated by Keynote</desc><defs></defs><g transform="matrix(1.00, 0.00, -0.00, -1.00, 0.0, 41.0)"><text xml:space="preserve" font-family="Aller,Aller" font-size="28.2" fill="#FEFFFF" transform="matrix(1.00, 0.00, -0.00, -1.00, 0.0, 14.1)">•</text><text xml:space="preserve" font-family="Aller,Aller" font-size="37.6" fill="#FEFFFF" transform="matrix(1.00, 0.00, -0.00, -1.00, 34.6, 11.0)">J</text><text xml:space="preserve" font-family="Aller,Aller" font-size="37.6" fill="#FEFFFF" transform="matrix(1.00, 0.00, -0.00, -1.00, 49.5, 11.0)">a</text><text xml:space="preserve" font-family="Aller,Aller" font-size="37.6" fill="#FEFFFF" transform="matrix(1.00, 0.00, -0.00, -1.00, 69.0, 11.0)">n</text><text xml:space="preserve" font-family="Aller,Aller" font-size="37.6" fill="#FEFFFF" transform="matrix(1.00, 0.00, -0.00, -1.00, 90.7, 11.0)">u</text><text xml:space="preserve" font-family="Aller,Aller" font-size="37.6" fill="#FEFFFF" transform="matrix(1.00, 0.00, -0.00, -1.00, 112.3, 11.0)">a</text><text xml:space="preserve" font-family="Aller,Aller" font-size="37.6" fill="#FEFFFF" transform="matrix(1.00, 0.00, -0.00, -1.00, 131.8, 11.0)">r</text><text xml:space="preserve" font-family="Aller,Aller" font-size="37.6" fill="#FEFFFF" transform="matrix(1.00, 0.00, -0.00, -1.00, 145.8, 11.0)">y</text><text xml:space="preserve" font-family="Aller,Aller" font-size="37.6" fill="#FEFFFF" transform="matrix(1.00, 0.00, -0.00, -1.00, 165.7, 11.0)"> </text><text xml:space="preserve" font-family="Aller,Aller" font-size="37.6" fill="#FEFFFF" transform="matrix(1.00, 0.00, -0.00, -1.00, 174.6, 11.0)">2</text><text xml:space="preserve" font-family="Aller,Aller" font-size="37.6" fill="#FEFFFF" transform="matrix(1.00, 0.00, -0.00, -1.00, 197.2, 11.0)">0</text><text xml:space="preserve" font-family="Aller,Aller" font-size="37.6" fill="#FEFFFF" transform="matrix(1.00, 0.00, -0.00, -1.00, 219.7, 11.0)">1</text><text xml:space="preserve" font-family="Aller,Aller" font-size="37.6" fill="#FEFFFF" transform="matrix(1.00, 0.00, -0.00, -1.00, 242.3, 11.0)">5</text><text xml:space="preserve" font-family="Aller,Aller" font-size="37.6" fill="#FEFFFF" transform="matrix(1.00, 0.00, -0.00, -1.00, 264.9, 11.0)"> </text><text xml:space="preserve" font-family="Aller,Aller" font-size="37.6" fill="#FEFFFF" transform="matrix(1.00, 0.00, -0.00, -1.00, 273.8, 11.0)">—</text><text xml:space="preserve" font-family="Aller,Aller" font-size="37.6" fill="#FEFFFF" transform="matrix(1.00, 0.00, -0.00, -1.00, 311.4, 11.0)"> </text><text xml:space="preserve" font-family="Aller,Aller" font-size="37.6" fill="#A7D3A9" transform="matrix(1.00, 0.00, -0.00, -1.00, 320.3, 11.0)">A</text><text xml:space="preserve" font-family="Aller,Aller" font-size="37.6" fill="#A7D3A9" transform="matrix(1.00, 0.00, -0.00, -1.00, 343.3, 11.0)">d</text><text xml:space="preserve" font-family="Aller,Aller" font-size="37.6" fill="#A7D3A9" transform="matrix(1.00, 0.00, -0.00, -1.00, 365.4, 11.0)">d</text><text xml:space="preserve" font-family="Aller,Aller" font-size="37.6" fill="#A7D3A9" transform="matrix(1.00, 0.00, -0.00, -1.00, 387.4, 11.0)"> </text><text xml:space="preserve" font-family="Aller,Aller" font-size="37.6" fill="#A7D3A9" transform="matrix(1.00, 0.00, -0.00, -1.00, 396.3, 11.0)">m</text><text xml:space="preserve" font-family="Aller,Aller" font-size="37.6" fill="#A7D3A9" transform="matrix(1.00, 0.00, -0.00, -1.00, 428.5, 11.0)">e</text><text xml:space="preserve" font-family="Aller,Aller" font-size="37.6" fill="#A7D3A9" transform="matrix(1.00, 0.00, -0.00, -1.00, 449.4, 11.0)">s</text><text xml:space="preserve" font-family="Aller,Aller" font-size="37.6" fill="#A7D3A9" transform="matrix(1.00, 0.00, -0.00, -1.00, 466.5, 11.0)">h</text><text xml:space="preserve" font-family="Aller,Aller" font-size="37.6" fill="#A7D3A9" transform="matrix(1.00, 0.00, -0.00, -1.00, 488.2, 11.0)">i</text><text xml:space="preserve" font-family="Aller,Aller" font-size="37.6" fill="#A7D3A9" transform="matrix(1.00, 0.00, -0.00, -1.00, 499.1, 11.0)">n</text><text xml:space="preserve" font-family="Aller,Aller" font-size="37.6" fill="#A7D3A9" transform="matrix(1.00, 0.00, -0.00, -1.00, 520.8, 11.0)">g</text><text xml:space="preserve" font-family="Aller,Aller" font-size="37.6" fill="#A7D3A9" transform="matrix(1.00, 0.00, -0.00, -1.00, 541.2, 11.0)">,</text><text xml:space="preserve" font-family="Aller,Aller" font-size="37.6" fill="#A7D3A9" transform="matrix(1.00, 0.00, -0.00, -1.00, 549.3, 11.0)"> </text><text xml:space="preserve" font-family="Aller,Aller" font-size="37.6" fill="#A7D3A9" transform="matrix(1.00, 0.00, -0.00, -1.00, 558.2, 11.0)">t</text><text xml:space="preserve" font-family="Aller,Aller" font-size="37.6" fill="#A7D3A9" transform="matrix(1.00, 0.00, -0.00, -1.00, 571.6, 11.0)">e</text><text xml:space="preserve" font-family="Aller,Aller" font-size="37.6" fill="#A7D3A9" transform="matrix(1.00, 0.00, -0.00, -1.00, 592.1, 11.0)">x</text><text xml:space="preserve" font-family="Aller,Aller" font-size="37.6" fill="#A7D3A9" transform="matrix(1.00, 0.00, -0.00, -1.00, 611.3, 11.0)">t</text><text xml:space="preserve" font-family="Aller,Aller" font-size="37.6" fill="#A7D3A9" transform="matrix(1.00, 0.00, -0.00, -1.00, 624.7, 11.0)">u</text><text xml:space="preserve" font-family="Aller,Aller" font-size="37.6" fill="#A7D3A9" transform="matrix(1.00, 0.00, -0.00, -1.00, 646.3, 11.0)">r</text><text xml:space="preserve" font-family="Aller,Aller" font-size="37.6" fill="#A7D3A9" transform="matrix(1.00, 0.00, -0.00, -1.00, 660.3, 11.0)">i</text><text xml:space="preserve" font-family="Aller,Aller" font-size="37.6" fill="#A7D3A9" transform="matrix(1.00, 0.00, -0.00, -1.00, 671.1, 11.0)">n</text><text xml:space="preserve" font-family="Aller,Aller" font-size="37.6" fill="#A7D3A9" transform="matrix(1.00, 0.00, -0.00, -1.00, 692.9, 11.0)">g</text><text xml:space="preserve" font-family="Aller,Aller" font-size="37.6" fill="#A7D3A9" transform="matrix(1.00, 0.00, -0.00, -1.00, 713.3, 11.0)">,</text><text xml:space="preserve" font-family="Aller,Aller" font-size="37.6" fill="#A7D3A9" transform="matrix(1.00, 0.00, -0.00, -1.00, 721.3, 11.0)"> </text><text xml:space="preserve" font-family="Aller,Aller" font-size="37.6" fill="#A7D3A9" transform="matrix(1.00, 0.00, -0.00, -1.00, 730.2, 11.0)">a</text><text xml:space="preserve" font-family="Aller,Aller" font-size="37.6" fill="#A7D3A9" transform="matrix(1.00, 0.00, -0.00, -1.00, 749.7, 11.0)">n</text><text xml:space="preserve" font-family="Aller,Aller" font-size="37.6" fill="#A7D3A9" transform="matrix(1.00, 0.00, -0.00, -1.00, 771.4, 11.0)">d</text></g></svg>