<?xml version="1.0" encoding="UTF-8" standalone="no"?><svg xmlns="http://www.w3.org/2000/svg" xmlns:xlink="http://www.w3.org/1999/xlink" clip-rule="evenodd" stroke-miterlimit="10" viewBox="0 0 1024 768"><desc>SVG generated by Keynote</desc><defs></defs><g transform="matrix(1.00, 0.00, -0.00, -1.00, 0.0, 768.0)"><path d="M 0.0 768.0 L 1024.0 768.0 L 1024.0 0.0 L 0.0 0.0 Z M 0.0 768.0 " fill="#000000"></path><g><clipPath id="clip0x6000010bc2c0"><path d="M 169.0 411.0 L 856.0 411.0 L 856.0 244.0 L 169.0 244.0 Z M 168.5 410.5 "></path></clipPath><g clip-path="url(#clip0x6000010bc2c0)"><g><clipPath id="clip0x6000016adb60"><path d="M 307.5 410.5 C 306.5 410.5 305.6 410.5 304.6 410.4 C 294.0 409.7 285.7 404.4 280.1 394.7 C 277.5 390.2 277.4 389.5 277.4 381.1 C 277.4 373.3 277.6 371.8 279.4 368.7 C 281.1 365.7 281.3 364.9 280.4 363.8 C 278.8 361.9 273.3 362.2 268.2 364.4 C 264.4 366.0 262.3 366.3 253.2 366.3 C 243.4 366.3 242.3 366.1 237.7 364.0 C 232.7 361.6 228.6 360.6 224.9 362.0 L 222.8 363.0 L 225.3 369.0 C 230.3 380.8 228.1 392.6 219.2 401.5 C 212.4 408.4 208.2 410.1 198.2 410.1 C 188.1 410.1 183.9 408.4 177.1 401.5 C 171.0 395.3 168.5 389.4 168.5 380.8 C 168.5 369.0 176.4 357.8 187.8 353.3 C 194.7 350.7 204.1 351.0 210.6 354.2 C 214.3 356.0 215.2 356.2 216.0 355.3 C 218.0 352.8 217.9 347.7 215.6 340.7 C 211.9 329.6 212.7 317.4 217.7 307.5 C 219.4 304.3 219.3 301.6 217.5 298.1 C 216.7 296.7 216.5 296.7 213.1 298.7 C 211.1 299.9 206.9 301.3 203.8 301.9 C 193.3 303.8 183.2 300.5 176.5 293.0 C 170.5 286.4 169.0 282.5 169.0 273.1 C 169.0 266.0 169.2 264.5 171.3 260.3 C 172.7 257.6 175.2 254.0 177.1 252.1 C 181.5 247.8 188.3 244.1 191.0 244.6 C 192.2 244.8 193.3 244.6 193.6 244.1 C 194.6 242.6 207.0 244.1 211.5 246.4 C 217.9 249.6 223.1 255.3 225.7 262.1 C 227.7 267.2 228.0 268.7 227.6 274.5 C 227.3 278.6 226.5 282.5 225.4 284.9 C 223.8 288.4 223.7 288.8 225.0 289.7 C 227.9 291.9 231.7 291.9 237.3 289.7 C 244.1 287.0 252.4 285.5 256.9 286.1 C 261.8 286.9 271.7 289.9 272.3 290.9 C 273.1 292.2 277.5 291.7 279.4 290.2 L 281.2 288.7 L 279.3 284.9 C 277.7 281.7 277.4 279.7 277.4 273.1 C 277.4 266.0 277.6 264.5 279.7 260.3 C 284.5 250.7 293.0 244.6 303.2 243.8 C 306.4 243.5 309.7 243.6 310.5 244.0 C 311.4 244.3 313.0 244.5 314.0 244.4 C 316.3 244.2 322.8 247.8 326.8 251.5 C 338.8 262.6 339.3 280.9 328.0 293.4 C 325.0 296.8 317.7 301.1 315.7 300.8 C 315.1 300.7 313.5 301.1 312.1 301.7 C 309.3 302.9 300.2 302.4 298.8 301.1 C 298.3 300.6 297.4 300.4 296.8 300.6 C 296.1 300.9 294.3 300.2 292.6 299.2 C 286.8 295.6 285.3 300.6 289.7 308.8 C 291.2 311.4 292.4 315.1 292.6 317.0 C 292.7 318.9 293.1 320.6 293.4 320.9 C 294.2 321.8 294.0 332.0 293.1 332.5 C 292.7 332.8 292.5 333.7 292.8 334.7 C 293.2 336.4 290.4 344.6 288.2 347.7 C 286.9 349.7 286.8 352.7 288.0 354.9 C 288.8 356.5 289.0 356.4 293.7 354.3 C 300.7 351.0 310.0 350.6 316.9 353.3 C 319.7 354.4 323.5 356.6 325.3 358.2 C 328.7 361.0 333.8 367.8 333.6 369.0 C 333.5 369.4 334.0 370.8 334.6 372.2 C 336.2 375.7 336.2 387.6 334.6 390.4 C 333.9 391.5 333.4 392.9 333.5 393.3 C 333.7 394.9 329.0 400.8 324.8 404.3 C 319.7 408.4 314.1 410.4 307.5 410.5 Z M 306.0 403.7 C 306.9 403.7 307.9 403.7 308.9 403.6 C 315.2 403.1 317.6 402.0 323.0 397.2 C 329.6 391.2 331.6 379.3 327.4 371.0 C 325.0 366.4 319.0 360.9 314.8 359.5 C 309.8 357.7 305.4 357.5 301.1 358.7 C 298.7 359.4 296.6 359.9 296.3 359.9 C 295.3 360.0 285.8 368.8 286.1 369.4 C 286.2 369.8 285.4 371.8 284.4 373.7 C 280.8 380.8 283.7 391.2 291.2 398.0 C 295.9 402.4 299.5 403.9 306.0 403.7 Z M 207.6 404.0 L 213.3 398.1 C 217.7 393.7 219.3 391.6 220.1 388.5 C 222.8 378.9 221.0 371.7 214.3 365.0 C 210.5 361.2 208.6 360.0 204.5 358.9 C 198.4 357.2 198.2 357.2 192.3 358.8 C 186.9 360.2 183.9 362.2 180.1 367.0 C 172.9 375.8 173.4 388.2 181.2 396.2 C 188.4 403.5 188.2 403.9 198.4 404.0 L 207.6 404.0 Z M 209.2 394.6 C 208.4 394.6 205.8 392.7 203.6 390.4 C 201.3 388.1 198.7 386.2 197.8 386.2 C 195.5 386.1 193.1 383.7 193.1 381.6 C 193.1 380.5 191.3 378.0 188.8 375.6 C 184.4 371.2 183.9 370.3 185.6 368.6 C 187.4 366.9 188.8 367.4 193.3 371.7 C 195.8 374.0 197.9 375.8 198.2 375.8 C 199.8 375.6 202.4 377.3 202.9 378.8 C 203.2 379.8 203.3 380.7 203.1 380.8 C 203.0 380.9 204.7 382.9 207.0 385.3 C 209.3 387.6 210.9 389.5 210.5 389.5 C 210.1 389.5 210.2 390.0 210.8 390.7 C 212.0 392.2 211.1 394.6 209.2 394.6 Z M 294.7 394.4 C 293.9 394.2 293.4 393.4 293.2 392.0 C 293.0 390.5 294.0 388.9 297.2 385.7 C 299.8 383.3 301.5 380.8 301.5 379.7 C 301.5 377.7 302.7 376.5 305.7 375.6 C 306.9 375.2 309.7 373.3 311.8 371.3 C 315.9 367.5 316.5 367.2 318.8 368.1 C 321.2 369.0 320.2 371.8 315.9 376.1 C 313.6 378.4 311.7 380.9 311.7 381.7 C 311.7 383.6 309.2 386.1 307.3 386.1 C 306.5 386.1 303.8 388.1 301.4 390.4 C 298.4 393.4 296.1 394.8 294.7 394.4 Z M 377.6 355.8 C 374.3 355.8 370.8 355.1 368.0 353.8 C 362.8 351.3 361.5 349.9 358.6 343.7 C 356.6 339.1 356.4 338.1 356.7 329.8 C 357.0 321.7 357.3 320.3 359.6 316.2 C 362.3 311.3 368.5 306.4 371.2 307.1 C 372.0 307.3 372.9 307.1 373.2 306.6 C 373.5 306.1 375.9 305.9 379.1 306.2 C 389.2 307.0 395.2 312.5 397.7 323.3 C 400.8 336.4 396.2 349.1 386.7 354.0 C 384.2 355.3 381.0 355.9 377.6 355.8 Z M 767.4 355.8 C 763.1 355.8 761.9 354.9 760.7 351.0 C 759.0 345.7 753.1 332.6 752.3 332.3 C 751.8 332.1 750.7 333.5 750.0 335.2 C 749.2 337.0 747.6 340.5 746.4 343.1 C 745.2 345.7 744.3 348.0 744.4 348.4 C 744.6 349.3 742.0 354.4 740.8 355.1 C 739.1 356.3 732.1 355.8 731.0 354.5 C 730.3 353.6 730.1 349.8 730.3 341.2 C 730.4 334.6 730.3 328.8 730.0 328.3 C 729.7 327.9 729.3 322.9 729.2 317.4 C 728.9 308.4 729.1 307.2 730.3 307.2 C 731.1 307.2 732.0 306.9 732.3 306.6 C 733.2 305.7 735.1 305.8 737.0 306.8 C 738.5 307.6 738.6 308.7 738.6 318.1 C 738.6 326.3 738.9 328.8 739.9 329.6 C 740.9 330.4 741.3 330.1 742.5 327.4 C 746.7 317.7 747.1 317.0 749.2 316.4 C 750.4 316.1 751.9 316.4 752.6 316.9 C 753.2 317.5 754.2 317.7 754.8 317.3 C 755.4 317.0 755.6 317.0 755.3 317.5 C 755.0 318.0 755.5 319.0 756.4 319.7 C 757.3 320.5 758.3 322.2 758.6 323.5 C 759.5 327.2 762.3 332.2 763.2 331.7 C 763.7 331.4 764.0 326.0 764.0 319.4 L 764.0 308.0 L 766.2 307.0 C 769.2 305.9 771.9 305.8 773.8 307.1 C 775.3 308.2 775.3 309.1 774.3 330.1 C 773.7 342.1 772.8 352.8 772.3 353.9 C 771.5 355.4 770.7 355.8 767.4 355.8 Z M 537.4 355.7 C 535.3 355.7 533.8 355.1 533.2 355.0 L 531.0 355.0 L 531.0 330.8 C 531.0 307.0 531.1 306.6 532.8 307.1 C 533.7 307.3 534.7 307.2 534.9 306.7 C 535.5 305.9 548.3 305.7 549.1 306.5 C 549.4 306.8 550.9 307.1 552.5 307.2 C 556.3 307.4 562.1 310.8 565.1 314.4 C 568.2 318.3 570.4 326.9 569.8 333.0 C 568.7 343.0 565.0 349.4 557.9 353.0 C 554.1 354.9 552.2 355.3 544.4 355.6 C 541.9 355.7 539.4 355.7 537.4 355.7 Z M 377.0 345.6 C 381.4 345.6 383.4 344.5 384.8 341.2 C 388.2 333.2 387.1 322.7 382.4 318.0 C 379.4 315.1 377.7 314.7 374.4 316.3 C 370.1 318.5 368.5 321.5 368.0 330.5 L 368.0 338.9 L 370.8 342.3 C 373.3 345.2 374.1 345.6 377.0 345.6 Z M 543.0 345.2 L 547.1 345.0 C 551.1 345.0 551.9 344.8 554.0 342.5 C 560.2 335.5 559.0 321.7 551.8 317.7 C 548.1 315.7 544.1 315.1 543.0 316.5 C 542.4 317.2 541.8 322.2 542.0 331.4 L 543.0 345.2 Z M 426.9 343.0 C 426.6 343.0 426.3 342.8 425.9 342.5 C 425.4 342.0 424.5 341.8 423.8 342.0 C 423.2 342.2 421.6 341.8 420.4 341.0 C 418.4 339.7 418.2 339.7 416.7 341.0 C 415.2 342.4 409.0 342.6 409.1 341.2 C 409.1 340.9 409.0 329.6 409.0 316.1 L 409.0 292.0 L 413.7 292.0 L 418.0 292.0 L 419.0 298.6 L 419.0 306.0 L 423.7 306.0 C 430.2 306.7 435.8 310.2 438.5 315.2 C 441.1 320.2 441.2 329.9 438.7 335.2 C 436.9 339.0 431.9 342.8 429.9 342.0 C 429.3 341.7 428.4 342.0 427.8 342.5 C 427.5 342.8 427.2 343.0 426.9 343.0 Z M 797.3 343.0 C 796.8 343.0 796.4 342.8 796.0 342.4 C 795.3 341.9 794.1 341.6 793.4 341.9 C 791.8 342.5 785.6 341.6 786.4 340.8 C 786.7 340.5 786.5 339.9 786.1 339.4 C 785.7 338.8 785.8 337.4 786.5 335.8 L 787.6 333.0 L 793.4 334.0 C 798.5 334.4 799.4 333.8 800.8 332.2 C 802.7 330.1 802.3 329.9 795.2 329.3 C 786.8 328.6 782.9 324.1 783.7 316.3 C 784.1 313.1 784.8 311.8 787.3 309.5 C 789.4 307.7 791.0 306.8 792.1 307.1 C 792.9 307.3 793.9 307.1 794.2 306.6 C 794.9 305.5 807.5 306.7 810.9 308.0 L 813.0 309.0 L 813.0 321.0 C 812.8 331.6 812.5 333.8 811.0 336.2 C 808.9 339.7 804.4 342.6 802.0 342.0 C 801.1 341.7 799.6 342.0 798.7 342.5 C 798.2 342.8 797.7 343.0 797.3 343.0 Z M 667.4 342.9 C 667.1 342.9 666.8 342.8 666.5 342.5 C 666.0 342.0 665.0 341.8 664.4 342.0 C 663.7 342.2 662.2 341.8 661.0 341.0 C 658.8 339.6 658.6 339.6 657.7 340.9 C 656.9 342.0 655.6 342.2 652.5 342.0 L 648.0 342.0 L 648.0 324.5 C 648.0 308.9 648.5 307.2 649.8 307.2 C 650.6 307.2 651.5 306.9 651.9 306.6 C 652.6 305.8 653.0 305.4 656.2 306.0 L 659.0 307.0 L 659.0 318.2 C 659.3 327.8 659.7 329.7 661.1 331.2 C 662.8 333.2 665.7 333.5 667.3 332.0 C 668.0 331.3 668.3 327.3 668.3 319.8 C 668.3 309.2 668.6 307.6 670.8 307.2 C 671.1 307.1 672.0 306.8 672.8 306.4 C 673.6 306.1 675.5 306.6 677.0 307.0 L 680.0 307.0 L 680.0 320.8 C 680.0 334.2 679.7 334.4 677.4 337.9 C 675.3 341.1 671.5 343.2 670.2 341.9 C 670.0 341.7 669.2 341.9 668.6 342.4 C 668.1 342.7 667.8 342.9 667.4 342.9 Z M 508.1 342.8 C 507.8 342.8 507.4 342.7 507.2 342.4 C 506.7 341.9 505.8 341.8 505.1 342.0 C 504.5 342.2 503.0 341.9 501.9 341.1 C 500.2 340.0 499.7 340.0 498.4 341.0 C 497.5 341.7 495.2 342.0 493.2 342.0 L 490.0 342.0 L 490.0 324.6 C 490.0 308.5 489.7 306.9 491.0 306.6 C 493.3 306.0 495.7 305.9 497.8 306.5 C 499.7 307.0 499.7 307.4 499.7 317.3 C 499.7 326.0 500.0 327.9 501.5 330.3 C 502.8 332.5 503.6 333.0 505.4 332.8 C 509.1 332.4 510.0 329.7 510.0 317.6 L 510.0 307.0 L 512.4 306.0 C 513.8 305.7 516.1 305.7 517.5 306.0 L 520.0 307.0 L 520.0 320.3 C 520.0 327.7 519.7 333.9 519.3 334.2 C 518.9 334.5 518.7 335.4 518.9 336.2 C 519.5 338.2 514.6 342.4 512.1 342.1 C 511.1 342.0 509.8 342.2 509.2 342.6 C 508.9 342.8 508.5 342.9 508.1 342.8 Z M 841.0 342.8 C 840.7 342.8 840.3 342.7 840.1 342.4 C 839.6 341.9 838.7 341.8 838.0 342.0 C 837.4 342.2 836.0 341.8 834.8 341.1 C 833.0 339.9 832.7 339.9 831.7 341.1 C 831.0 342.0 829.5 342.2 826.8 342.0 L 823.0 342.0 L 823.0 316.7 L 822.0 292.0 L 827.9 292.0 L 833.0 292.0 L 834.0 298.6 L 834.0 306.0 L 836.5 306.0 C 837.9 306.1 839.6 306.3 840.3 306.6 C 841.0 306.9 842.1 307.0 842.7 306.9 C 846.5 306.3 855.2 315.9 854.5 319.9 C 854.2 321.1 854.4 322.3 854.8 322.5 C 855.8 323.1 855.7 327.7 854.8 328.3 C 854.3 328.5 854.2 329.5 854.4 330.4 C 855.4 334.2 848.5 342.7 844.8 342.1 C 843.9 342.0 842.7 342.2 842.1 342.6 C 841.8 342.8 841.4 342.9 841.0 342.8 Z M 464.2 342.8 C 463.8 342.8 463.3 342.6 463.0 342.4 C 462.4 341.9 461.6 341.7 461.4 341.9 C 460.4 342.9 456.7 341.5 453.9 339.1 C 450.0 335.8 448.1 331.1 448.1 324.5 C 448.1 315.0 451.3 309.8 458.5 307.1 C 461.7 305.9 470.6 305.7 471.3 306.7 C 471.6 307.2 472.5 307.3 473.5 307.1 C 476.2 306.4 478.8 309.2 478.2 312.2 C 477.9 313.6 477.2 315.0 476.7 315.3 C 476.2 315.7 472.9 315.7 469.3 315.5 C 463.2 315.1 462.8 315.2 460.8 317.3 C 458.2 320.1 458.7 320.7 470.5 321.0 L 480.0 321.0 L 480.0 324.8 C 480.4 331.1 478.2 336.8 474.0 339.8 C 472.1 341.2 469.8 342.3 468.8 342.2 C 467.9 342.1 466.4 342.3 465.6 342.7 C 465.2 342.8 464.7 342.9 464.2 342.8 Z M 621.8 342.8 C 621.3 342.8 620.9 342.6 620.6 342.4 C 619.9 341.9 619.2 341.7 618.9 341.9 C 617.2 343.7 609.9 338.9 607.7 334.5 C 605.9 331.1 605.2 322.3 606.4 318.0 C 607.6 313.5 612.5 307.9 616.1 306.9 C 619.7 305.9 625.7 305.8 626.4 306.8 C 626.6 307.2 627.4 307.4 628.1 307.1 C 630.7 306.1 638.0 313.4 638.3 317.3 C 638.4 318.3 638.7 319.7 639.1 320.6 C 640.4 323.7 638.9 332.1 636.5 335.6 C 633.8 339.5 629.3 342.5 626.6 342.2 C 625.5 342.1 624.0 342.3 623.2 342.7 C 622.8 342.8 622.3 342.9 621.8 342.8 Z M 704.7 342.8 C 704.4 342.8 704.0 342.7 703.7 342.6 C 703.1 342.2 701.7 342.0 700.5 342.1 C 698.0 342.4 693.6 339.4 690.8 335.5 C 687.1 330.6 687.0 318.7 690.7 313.4 C 693.0 309.9 697.9 306.6 699.8 307.1 C 700.7 307.3 701.6 307.2 701.8 306.7 C 702.5 305.7 710.0 305.8 714.5 306.9 C 717.9 307.8 718.3 308.1 718.3 310.3 C 718.3 313.9 716.6 317.1 715.0 316.5 C 714.2 316.2 711.0 315.6 707.9 315.3 C 702.5 314.8 702.1 314.9 700.9 316.7 C 700.2 317.8 699.8 319.1 700.1 319.5 C 700.4 320.0 704.8 320.3 709.8 320.3 C 719.9 320.3 720.8 320.8 720.8 325.7 C 720.8 329.0 718.3 335.7 716.3 337.9 C 714.0 340.4 710.2 342.4 708.3 342.1 C 707.5 342.0 706.4 342.2 705.8 342.5 C 705.5 342.7 705.1 342.8 704.7 342.8 Z M 596.3 342.2 C 594.6 342.1 592.8 341.7 591.5 340.8 C 589.4 339.5 589.3 339.5 588.2 340.9 C 587.4 342.0 586.2 342.2 583.5 342.0 L 580.0 342.0 L 580.0 324.2 C 579.8 308.9 579.5 306.7 580.6 307.1 C 581.3 307.4 582.1 307.2 582.3 306.8 C 582.9 305.8 585.6 305.7 586.5 306.6 C 586.8 306.9 587.7 307.2 588.5 307.2 C 589.8 307.2 590.0 308.7 590.4 318.5 C 590.8 331.0 591.4 332.1 596.9 332.1 C 598.7 332.1 599.9 332.7 600.5 333.8 C 601.7 336.0 601.6 340.0 600.4 341.3 C 599.6 342.0 598.1 342.3 596.3 342.2 Z M 704.3 333.8 C 707.2 333.8 710.3 331.1 709.3 329.5 C 709.1 329.1 706.8 328.8 704.3 328.8 C 699.1 328.8 698.3 329.4 700.2 332.0 C 701.0 333.3 702.3 333.8 704.3 333.8 Z M 464.7 333.8 C 467.3 333.7 469.8 332.2 468.9 330.0 C 468.6 329.1 467.2 328.8 464.2 328.8 C 459.4 328.8 458.2 329.8 460.4 332.2 C 461.5 333.4 463.1 333.8 464.7 333.8 Z M 622.8 333.8 C 624.2 333.7 625.6 333.0 626.5 331.6 C 628.2 329.0 628.5 320.1 626.9 317.2 C 626.1 315.7 625.2 315.3 622.6 315.3 C 619.7 315.3 619.0 315.6 617.8 317.9 C 616.0 321.5 616.5 329.7 618.7 332.1 C 619.9 333.3 621.4 333.9 622.8 333.8 Z M 423.3 333.0 C 427.2 333.0 428.6 330.7 428.6 324.4 C 428.6 319.8 428.3 318.6 426.6 317.1 C 424.7 315.3 420.2 314.6 419.0 315.8 C 417.9 316.9 418.4 327.1 419.6 330.1 C 420.6 332.4 421.3 333.0 423.3 333.0 Z M 838.2 332.9 C 839.5 332.8 840.9 332.1 842.0 330.7 C 843.6 328.7 843.8 327.6 843.4 323.3 C 843.0 319.4 842.5 318.0 841.0 316.8 C 839.0 315.3 835.1 314.8 834.1 315.8 C 832.9 317.0 833.5 329.2 834.8 331.1 C 835.7 332.4 837.0 333.0 838.2 332.9 Z M 798.9 322.3 C 801.6 322.4 801.7 322.3 801.7 319.1 C 801.7 315.8 801.6 315.7 798.8 315.4 C 795.6 315.2 793.7 316.4 793.7 318.7 C 793.7 320.7 795.8 322.2 798.9 322.3 Z M 306.5 295.9 C 310.1 295.9 313.6 295.4 315.9 294.2 C 324.9 289.6 329.5 282.5 329.5 273.1 C 329.5 263.2 324.6 256.0 315.1 251.6 C 309.4 249.0 304.4 248.9 298.5 251.2 C 289.2 255.0 282.1 265.8 283.1 274.6 C 284.1 283.0 289.3 290.2 297.0 294.1 C 299.5 295.3 303.0 295.9 306.5 295.9 Z M 198.6 295.9 C 205.7 296.1 208.5 294.9 214.8 288.6 C 218.6 284.8 219.3 283.6 220.5 278.4 C 221.6 273.5 221.7 271.9 220.7 267.9 C 219.0 260.4 213.7 254.4 206.0 251.3 C 200.5 248.9 195.5 249.0 189.9 251.4 C 174.7 257.9 170.2 276.0 180.8 288.0 C 185.5 293.4 190.6 295.7 198.6 295.9 Z M 187.3 286.5 C 186.7 286.5 186.2 286.2 185.6 285.6 C 183.9 283.9 184.4 282.7 188.7 278.0 C 191.0 275.5 193.1 272.5 193.4 271.2 C 193.8 269.6 194.7 268.7 196.3 268.3 C 197.5 268.0 200.6 265.9 203.0 263.7 C 207.5 259.5 210.3 258.5 211.2 260.9 C 212.1 263.2 211.8 263.7 208.1 267.4 C 206.1 269.3 204.1 272.1 203.7 273.5 C 203.1 275.2 201.6 276.7 198.9 278.1 C 196.7 279.3 193.5 281.7 191.7 283.4 C 189.5 285.5 188.3 286.5 187.3 286.5 Z M 318.5 286.4 C 317.1 286.7 314.9 285.4 312.0 282.4 C 309.8 280.1 307.2 278.1 306.2 278.1 C 304.0 278.1 301.5 275.7 301.5 273.5 C 301.5 272.3 300.0 270.4 297.3 268.1 C 293.3 264.8 291.9 261.8 293.6 260.1 C 295.0 258.7 297.7 259.9 301.9 263.8 C 304.3 266.1 306.8 268.0 307.3 268.0 C 308.6 268.0 311.7 271.1 311.7 272.5 C 311.7 273.1 313.6 275.4 315.9 277.7 C 319.2 280.9 320.2 282.5 320.0 284.0 C 319.8 285.4 319.3 286.2 318.5 286.4 Z M 318.5 286.4 "></path></clipPath><g clip-path="url(#clip0x6000016adb60)"><image xlink:href="../../307F7B78-9DFF-4FB2-906B-586251BFDB10/assets/2D5DF9EB3DADFE688DE863307DD942A9.png" width="788.00" height="220.00" transform="matrix(0.92, 0.00, -0.00, -0.92, 144.0, 429.0)"></image></g></g></g></g></g></svg>