<?xml version="1.0" encoding="UTF-8" standalone="no"?><svg xmlns="http://www.w3.org/2000/svg" xmlns:xlink="http://www.w3.org/1999/xlink" clip-rule="evenodd" stroke-miterlimit="10" viewBox="0 0 690 171"><desc>SVG generated by Keynote</desc><defs></defs><g transform="matrix(1.00, 0.00, -0.00, -1.00, 0.0, 171.0)"><g><clipPath id="clip0x6080012b4dc0"><path d="M 2.0 170.0 L 689.0 170.0 L 689.0 3.0 L 2.0 3.0 Z M 1.5 169.5 "></path></clipPath><g clip-path="url(#clip0x6080012b4dc0)"><g><clipPath id="clip0x608000ea5b80"><path d="M 140.5 169.5 C 139.5 169.5 138.6 169.5 137.6 169.4 C 127.0 168.7 118.7 163.4 113.1 153.7 C 110.5 149.2 110.4 148.5 110.4 140.1 C 110.4 132.3 110.6 130.8 112.4 127.7 C 114.1 124.7 114.3 123.9 113.4 122.8 C 111.8 120.9 106.3 121.2 101.2 123.4 C 97.4 125.0 95.3 125.3 86.2 125.3 C 76.4 125.3 75.3 125.1 70.7 123.0 C 65.7 120.6 61.6 119.6 57.9 121.0 L 55.8 122.0 L 58.3 128.0 C 63.3 139.8 61.1 151.6 52.2 160.5 C 45.4 167.4 41.2 169.1 31.2 169.1 C 21.1 169.1 16.9 167.4 10.1 160.5 C 4.0 154.3 1.5 148.4 1.5 139.8 C 1.5 128.0 9.4 116.8 20.8 112.3 C 27.7 109.7 37.1 110.0 43.6 113.2 C 47.3 115.0 48.2 115.2 49.0 114.3 C 51.0 111.8 50.9 106.7 48.6 99.7 C 44.9 88.6 45.7 76.4 50.7 66.5 C 52.4 63.3 52.3 60.6 50.5 57.1 C 49.7 55.7 49.5 55.7 46.1 57.7 C 44.1 58.9 39.9 60.3 36.8 60.9 C 26.3 62.8 16.2 59.5 9.5 52.0 C 3.5 45.4 2.0 41.5 2.0 32.1 C 2.0 25.0 2.2 23.5 4.3 19.3 C 5.7 16.6 8.2 13.0 10.1 11.1 C 14.5 6.8 21.3 3.1 24.0 3.6 C 25.2 3.8 26.3 3.6 26.6 3.1 C 27.6 1.6 40.0 3.1 44.5 5.4 C 50.9 8.6 56.1 14.3 58.7 21.1 C 60.7 26.2 61.0 27.7 60.6 33.5 C 60.3 37.6 59.5 41.5 58.4 43.9 C 56.8 47.4 56.7 47.8 58.0 48.7 C 60.9 50.9 64.7 50.9 70.3 48.7 C 77.1 46.0 85.4 44.5 89.9 45.1 C 94.8 45.9 104.7 48.9 105.3 49.9 C 106.1 51.2 110.5 50.7 112.4 49.2 L 114.2 47.7 L 112.3 43.9 C 110.7 40.7 110.4 38.7 110.4 32.1 C 110.4 25.0 110.6 23.5 112.7 19.3 C 117.5 9.7 126.0 3.6 136.2 2.8 C 139.4 2.5 142.7 2.6 143.5 3.0 C 144.4 3.3 146.0 3.5 147.0 3.4 C 149.3 3.2 155.8 6.8 159.8 10.5 C 171.8 21.6 172.3 39.9 161.0 52.4 C 158.0 55.8 150.7 60.1 148.7 59.8 C 148.1 59.7 146.5 60.1 145.1 60.7 C 142.3 61.9 133.2 61.4 131.8 60.1 C 131.3 59.6 130.4 59.4 129.8 59.6 C 129.1 59.9 127.3 59.2 125.6 58.2 C 119.8 54.6 118.3 59.6 122.7 67.8 C 124.2 70.4 125.4 74.1 125.6 76.0 C 125.7 77.9 126.1 79.6 126.4 79.9 C 127.2 80.8 127.0 91.0 126.1 91.5 C 125.7 91.8 125.5 92.7 125.8 93.7 C 126.2 95.4 123.4 103.6 121.2 106.7 C 119.9 108.7 119.8 111.7 121.0 113.9 C 121.8 115.5 122.0 115.4 126.7 113.3 C 133.7 110.0 143.0 109.6 149.9 112.3 C 152.7 113.4 156.5 115.6 158.3 117.2 C 161.7 120.0 166.8 126.8 166.6 128.0 C 166.5 128.4 167.0 129.8 167.6 131.2 C 169.2 134.7 169.2 146.6 167.6 149.4 C 166.9 150.5 166.4 151.9 166.5 152.3 C 166.7 153.9 162.0 159.8 157.8 163.3 C 152.7 167.4 147.1 169.4 140.5 169.5 Z M 139.0 162.7 C 139.9 162.7 140.9 162.7 141.9 162.6 C 148.2 162.1 150.6 161.0 156.0 156.2 C 162.6 150.2 164.6 138.3 160.4 130.0 C 158.0 125.4 152.0 119.9 147.8 118.5 C 142.8 116.7 138.4 116.5 134.1 117.7 C 131.7 118.4 129.6 118.9 129.3 118.9 C 128.3 119.0 118.8 127.8 119.1 128.4 C 119.2 128.8 118.4 130.8 117.4 132.7 C 113.8 139.8 116.7 150.2 124.2 157.0 C 128.9 161.4 132.5 162.9 139.0 162.7 Z M 40.6 163.0 L 46.3 157.1 C 50.7 152.7 52.3 150.6 53.1 147.5 C 55.8 137.9 54.0 130.7 47.3 124.0 C 43.5 120.2 41.6 119.0 37.5 117.9 C 31.4 116.2 31.2 116.2 25.3 117.8 C 19.9 119.2 16.9 121.2 13.1 126.0 C 5.9 134.8 6.4 147.2 14.2 155.2 C 21.4 162.5 21.2 162.9 31.4 163.0 L 40.6 163.0 Z M 42.2 153.6 C 41.4 153.6 38.8 151.7 36.6 149.4 C 34.3 147.1 31.7 145.2 30.8 145.2 C 28.5 145.1 26.1 142.7 26.1 140.6 C 26.1 139.5 24.3 137.0 21.8 134.6 C 17.4 130.2 16.9 129.3 18.6 127.6 C 20.4 125.9 21.8 126.4 26.3 130.7 C 28.8 133.0 30.9 134.8 31.2 134.8 C 32.8 134.6 35.4 136.3 35.9 137.8 C 36.2 138.8 36.3 139.7 36.1 139.8 C 36.0 139.9 37.7 141.9 40.0 144.3 C 42.3 146.6 43.9 148.5 43.5 148.5 C 43.1 148.5 43.2 149.0 43.8 149.7 C 45.0 151.2 44.1 153.6 42.2 153.6 Z M 127.7 153.4 C 126.9 153.2 126.4 152.4 126.2 151.0 C 126.0 149.5 127.0 147.9 130.2 144.7 C 132.8 142.3 134.5 139.8 134.5 138.7 C 134.5 136.7 135.7 135.5 138.7 134.6 C 139.9 134.2 142.7 132.3 144.8 130.3 C 148.9 126.5 149.5 126.2 151.8 127.1 C 154.2 128.0 153.2 130.8 148.9 135.1 C 146.6 137.4 144.7 139.9 144.7 140.7 C 144.7 142.6 142.2 145.1 140.3 145.1 C 139.5 145.1 136.8 147.1 134.4 149.4 C 131.4 152.4 129.1 153.8 127.7 153.4 Z M 210.6 114.8 C 207.3 114.8 203.8 114.1 201.0 112.8 C 195.8 110.3 194.5 108.9 191.6 102.7 C 189.6 98.1 189.4 97.1 189.7 88.8 C 190.0 80.7 190.3 79.3 192.6 75.2 C 195.3 70.3 201.5 65.4 204.2 66.1 C 205.0 66.3 205.9 66.1 206.2 65.6 C 206.5 65.1 208.9 64.9 212.1 65.2 C 222.2 66.0 228.2 71.5 230.7 82.3 C 233.8 95.4 229.2 108.1 219.7 113.0 C 217.2 114.3 214.0 114.9 210.6 114.8 Z M 600.4 114.8 C 596.1 114.8 594.9 113.9 593.7 110.0 C 592.0 104.7 586.1 91.6 585.3 91.3 C 584.8 91.1 583.7 92.5 583.0 94.2 C 582.2 96.0 580.6 99.5 579.4 102.1 C 578.2 104.7 577.3 107.0 577.4 107.4 C 577.6 108.3 575.0 113.4 573.8 114.1 C 572.1 115.3 565.1 114.8 564.0 113.5 C 563.3 112.6 563.1 108.8 563.3 100.2 C 563.4 93.6 563.3 87.8 563.0 87.3 C 562.7 86.9 562.3 81.9 562.2 76.4 C 561.9 67.4 562.1 66.2 563.3 66.2 C 564.1 66.2 565.0 65.9 565.3 65.6 C 566.2 64.7 568.1 64.8 570.0 65.8 C 571.5 66.6 571.6 67.7 571.6 77.1 C 571.6 85.3 571.9 87.8 572.9 88.6 C 573.9 89.4 574.3 89.1 575.5 86.4 C 579.7 76.7 580.1 76.0 582.2 75.4 C 583.4 75.1 584.9 75.4 585.6 75.9 C 586.2 76.5 587.2 76.7 587.8 76.3 C 588.4 76.0 588.6 76.0 588.3 76.5 C 588.0 77.0 588.5 78.0 589.4 78.7 C 590.3 79.5 591.3 81.2 591.6 82.5 C 592.5 86.2 595.3 91.2 596.2 90.7 C 596.7 90.4 597.0 85.0 597.0 78.4 L 597.0 67.0 L 599.2 66.0 C 602.2 64.9 604.9 64.8 606.8 66.1 C 608.3 67.2 608.3 68.1 607.3 89.1 C 606.7 101.1 605.8 111.8 605.3 112.9 C 604.5 114.4 603.7 114.8 600.4 114.8 Z M 370.4 114.7 C 368.3 114.7 366.8 114.1 366.2 114.0 L 364.0 114.0 L 364.0 89.8 C 364.0 66.0 364.1 65.6 365.8 66.1 C 366.7 66.3 367.7 66.2 367.9 65.7 C 368.5 64.9 381.3 64.7 382.1 65.5 C 382.4 65.8 383.9 66.1 385.5 66.2 C 389.3 66.4 395.1 69.8 398.1 73.4 C 401.2 77.3 403.4 85.9 402.8 92.0 C 401.7 102.0 398.0 108.4 390.9 112.0 C 387.1 113.9 385.2 114.3 377.4 114.6 C 374.9 114.7 372.4 114.7 370.4 114.7 Z M 210.0 104.6 C 214.4 104.6 216.4 103.5 217.8 100.2 C 221.2 92.2 220.1 81.7 215.4 77.0 C 212.4 74.1 210.7 73.7 207.4 75.3 C 203.1 77.5 201.5 80.5 201.0 89.5 L 201.0 97.9 L 203.8 101.3 C 206.3 104.2 207.1 104.6 210.0 104.6 Z M 376.0 104.2 L 380.1 104.0 C 384.1 104.0 384.9 103.8 387.0 101.5 C 393.2 94.5 392.0 80.7 384.8 76.7 C 381.2 74.7 377.1 74.1 376.0 75.5 C 375.4 76.2 374.8 81.2 375.0 90.4 L 376.0 104.2 Z M 259.9 102.0 C 259.6 102.0 259.3 101.8 258.9 101.5 C 258.4 101.0 257.5 100.8 256.8 101.0 C 256.2 101.2 254.6 100.8 253.4 100.0 C 251.4 98.7 251.2 98.7 249.7 100.0 C 248.2 101.4 242.0 101.6 242.1 100.2 C 242.1 99.9 242.0 88.6 242.0 75.1 L 242.0 51.0 L 246.7 51.0 L 251.0 51.0 L 252.0 57.6 L 252.0 65.0 L 256.7 65.0 C 263.2 65.7 268.8 69.2 271.5 74.2 C 274.1 79.2 274.2 88.9 271.7 94.2 C 269.9 98.0 264.9 101.8 262.9 101.0 C 262.3 100.7 261.4 101.0 260.8 101.5 C 260.5 101.8 260.2 102.0 259.9 102.0 Z M 630.3 102.0 C 629.8 102.0 629.4 101.8 629.0 101.4 C 628.3 100.9 627.1 100.6 626.4 100.9 C 624.8 101.5 618.6 100.6 619.4 99.8 C 619.7 99.5 619.5 98.9 619.1 98.4 C 618.7 97.8 618.8 96.4 619.5 94.8 L 620.6 92.0 L 626.4 93.0 C 631.5 93.4 632.4 92.8 633.8 91.2 C 635.7 89.1 635.3 88.9 628.2 88.3 C 619.8 87.6 615.9 83.1 616.7 75.3 C 617.1 72.1 617.8 70.8 620.3 68.5 C 622.4 66.7 624.0 65.8 625.1 66.1 C 625.9 66.3 626.9 66.1 627.2 65.6 C 627.9 64.5 640.5 65.7 643.9 67.0 L 646.0 68.0 L 646.0 80.0 C 645.8 90.6 645.5 92.8 644.0 95.2 C 641.9 98.7 637.4 101.6 635.0 101.0 C 634.1 100.7 632.6 101.0 631.7 101.5 C 631.2 101.8 630.7 102.0 630.3 102.0 Z M 500.4 101.9 C 500.1 101.9 499.8 101.8 499.5 101.5 C 499.0 101.0 498.0 100.8 497.4 101.0 C 496.7 101.2 495.2 100.8 494.0 100.0 C 491.8 98.6 491.6 98.6 490.7 99.9 C 489.9 101.0 488.6 101.2 485.5 101.0 L 481.0 101.0 L 481.0 83.5 C 481.0 67.9 481.5 66.2 482.8 66.2 C 483.6 66.2 484.5 65.9 484.9 65.6 C 485.6 64.8 486.0 64.4 489.2 65.0 L 492.0 66.0 L 492.0 77.2 C 492.3 86.8 492.7 88.7 494.1 90.2 C 495.8 92.2 498.7 92.5 500.3 91.0 C 501.0 90.3 501.3 86.3 501.3 78.8 C 501.3 68.2 501.6 66.6 503.8 66.2 C 504.1 66.1 505.0 65.8 505.8 65.4 C 506.6 65.1 508.5 65.6 510.0 66.0 L 513.0 66.0 L 513.0 79.8 C 513.0 93.2 512.7 93.4 510.4 96.9 C 508.3 100.1 504.5 102.2 503.2 100.9 C 503.0 100.7 502.2 100.9 501.6 101.4 C 501.1 101.7 500.8 101.9 500.4 101.9 Z M 341.1 101.8 C 340.8 101.8 340.4 101.7 340.2 101.4 C 339.7 100.9 338.8 100.8 338.1 101.0 C 337.5 101.2 336.0 100.9 334.9 100.1 C 333.2 99.0 332.7 99.0 331.4 100.0 C 330.5 100.7 328.2 101.0 326.2 101.0 L 323.0 101.0 L 323.0 83.6 C 323.0 67.5 322.7 65.9 324.0 65.6 C 326.3 65.0 328.7 64.9 330.8 65.5 C 332.7 66.0 332.7 66.4 332.7 76.3 C 332.7 85.0 333.0 86.9 334.5 89.3 C 335.8 91.5 336.6 92.0 338.4 91.8 C 342.1 91.4 343.0 88.7 343.0 76.6 L 343.0 66.0 L 345.4 65.0 C 346.8 64.7 349.1 64.7 350.5 65.0 L 353.0 66.0 L 353.0 79.3 C 353.0 86.7 352.7 92.9 352.3 93.2 C 351.9 93.5 351.7 94.4 351.9 95.2 C 352.5 97.2 347.6 101.4 345.1 101.1 C 344.1 101.0 342.8 101.2 342.2 101.6 C 341.9 101.8 341.5 101.9 341.1 101.8 Z M 674.0 101.8 C 673.7 101.8 673.3 101.7 673.1 101.4 C 672.6 100.9 671.7 100.8 671.0 101.0 C 670.4 101.2 669.0 100.8 667.8 100.1 C 666.0 98.9 665.7 98.9 664.7 100.1 C 664.0 101.0 662.5 101.2 659.8 101.0 L 656.0 101.0 L 656.0 75.7 L 655.0 51.0 L 660.9 51.0 L 666.0 51.0 L 667.0 57.6 L 667.0 65.0 L 669.5 65.0 C 670.9 65.1 672.6 65.3 673.3 65.6 C 674.0 65.9 675.1 66.0 675.7 65.9 C 679.5 65.3 688.2 74.9 687.5 78.9 C 687.2 80.1 687.4 81.3 687.8 81.5 C 688.8 82.1 688.7 86.7 687.8 87.3 C 687.3 87.5 687.2 88.5 687.4 89.4 C 688.4 93.2 681.5 101.7 677.8 101.1 C 676.9 101.0 675.7 101.2 675.1 101.6 C 674.8 101.8 674.4 101.9 674.0 101.8 Z M 297.2 101.8 C 296.8 101.8 296.3 101.6 296.0 101.4 C 295.4 100.9 294.6 100.7 294.4 100.9 C 293.4 101.9 289.7 100.5 286.9 98.1 C 283.0 94.8 281.1 90.1 281.1 83.5 C 281.1 74.0 284.3 68.8 291.5 66.1 C 294.7 64.9 303.6 64.7 304.3 65.7 C 304.6 66.2 305.5 66.3 306.5 66.1 C 309.2 65.4 311.8 68.2 311.2 71.2 C 310.9 72.6 310.2 74.0 309.7 74.3 C 309.2 74.7 305.9 74.7 302.3 74.5 C 296.2 74.1 295.8 74.2 293.8 76.3 C 291.2 79.1 291.7 79.7 303.5 80.0 L 313.0 80.0 L 313.0 83.8 C 313.4 90.1 311.2 95.8 307.0 98.8 C 305.1 100.2 302.8 101.3 301.8 101.2 C 300.9 101.1 299.4 101.3 298.6 101.7 C 298.2 101.8 297.7 101.9 297.2 101.8 Z M 454.8 101.8 C 454.3 101.8 453.9 101.6 453.6 101.4 C 452.9 100.9 452.2 100.7 451.9 100.9 C 450.2 102.7 442.9 97.9 440.7 93.5 C 438.9 90.1 438.2 81.3 439.4 77.0 C 440.6 72.5 445.5 66.9 449.1 65.9 C 452.7 64.9 458.7 64.8 459.4 65.8 C 459.6 66.2 460.4 66.4 461.1 66.1 C 463.7 65.1 471.0 72.4 471.3 76.3 C 471.4 77.3 471.7 78.7 472.1 79.6 C 473.4 82.7 471.9 91.1 469.5 94.6 C 466.8 98.5 462.3 101.5 459.6 101.2 C 458.5 101.1 457.0 101.3 456.2 101.7 C 455.8 101.8 455.3 101.9 454.8 101.8 Z M 537.7 101.8 C 537.4 101.8 537.0 101.7 536.7 101.5 C 536.1 101.2 534.7 101.0 533.5 101.1 C 531.0 101.4 526.6 98.4 523.8 94.5 C 520.1 89.6 520.0 77.7 523.7 72.4 C 526.0 68.9 530.9 65.6 532.8 66.1 C 533.7 66.3 534.6 66.2 534.8 65.7 C 535.5 64.7 543.0 64.8 547.5 65.9 C 550.9 66.8 551.3 67.1 551.3 69.3 C 551.3 72.9 549.6 76.1 548.0 75.5 C 547.2 75.2 544.0 74.6 540.9 74.3 C 535.5 73.8 535.1 73.9 533.9 75.7 C 533.2 76.8 532.8 78.1 533.1 78.5 C 533.4 79.0 537.8 79.3 542.8 79.3 C 552.9 79.3 553.8 79.8 553.8 84.7 C 553.8 88.0 551.3 94.7 549.3 96.9 C 547.0 99.4 543.2 101.4 541.3 101.1 C 540.5 101.0 539.4 101.2 538.8 101.5 C 538.5 101.7 538.1 101.8 537.7 101.8 Z M 429.3 101.2 C 427.6 101.1 425.8 100.7 424.5 99.8 C 422.4 98.5 422.3 98.5 421.2 99.9 C 420.4 101.0 419.2 101.2 416.5 101.0 L 413.0 101.0 L 413.0 83.2 C 412.8 67.9 412.5 65.7 413.6 66.1 C 414.3 66.4 415.1 66.2 415.3 65.8 C 415.9 64.8 418.6 64.7 419.5 65.6 C 419.8 65.9 420.7 66.2 421.5 66.2 C 422.8 66.2 423.0 67.7 423.4 77.5 C 423.8 90.0 424.4 91.1 429.9 91.1 C 431.7 91.1 432.9 91.7 433.5 92.8 C 434.7 95.0 434.6 99.0 433.4 100.3 C 432.6 101.0 431.1 101.3 429.3 101.2 Z M 537.3 92.8 C 540.2 92.8 543.3 90.1 542.3 88.5 C 542.1 88.1 539.8 87.8 537.3 87.8 C 532.1 87.8 531.3 88.4 533.2 91.0 C 534.0 92.3 535.3 92.8 537.3 92.8 Z M 297.7 92.8 C 300.3 92.7 302.8 91.2 301.9 89.0 C 301.6 88.1 300.2 87.8 297.2 87.8 C 292.4 87.8 291.2 88.8 293.4 91.2 C 294.5 92.4 296.1 92.8 297.7 92.8 Z M 455.8 92.8 C 457.2 92.7 458.6 92.0 459.5 90.6 C 461.2 88.0 461.5 79.1 459.9 76.2 C 459.1 74.7 458.2 74.3 455.6 74.3 C 452.7 74.3 452.0 74.6 450.8 76.9 C 449.0 80.5 449.5 88.7 451.7 91.1 C 452.9 92.3 454.4 92.9 455.8 92.8 Z M 256.3 92.0 C 260.2 92.0 261.6 89.7 261.6 83.4 C 261.6 78.8 261.3 77.6 259.6 76.1 C 257.7 74.3 253.2 73.6 252.0 74.8 C 250.9 75.9 251.4 86.1 252.6 89.1 C 253.6 91.4 254.3 92.0 256.3 92.0 Z M 671.2 91.9 C 672.5 91.8 673.9 91.1 675.0 89.7 C 676.6 87.7 676.8 86.6 676.4 82.3 C 676.0 78.4 675.5 77.0 674.0 75.8 C 672.0 74.3 668.1 73.8 667.1 74.8 C 665.9 76.0 666.5 88.2 667.8 90.1 C 668.7 91.4 670.0 92.0 671.2 91.9 Z M 631.9 81.3 C 634.6 81.4 634.7 81.3 634.7 78.1 C 634.7 74.8 634.6 74.7 631.8 74.4 C 628.6 74.2 626.7 75.4 626.7 77.7 C 626.7 79.7 628.8 81.2 631.9 81.3 Z M 139.5 54.9 C 143.1 54.9 146.6 54.4 148.9 53.2 C 157.9 48.6 162.5 41.5 162.5 32.1 C 162.5 22.2 157.6 15.0 148.1 10.6 C 142.4 8.0 137.4 7.9 131.5 10.2 C 122.2 14.0 115.1 24.8 116.1 33.6 C 117.1 42.0 122.3 49.2 130.0 53.1 C 132.5 54.3 136.0 54.9 139.5 54.9 Z M 31.6 54.9 C 38.7 55.1 41.5 53.9 47.8 47.6 C 51.6 43.8 52.3 42.6 53.5 37.4 C 54.6 32.5 54.7 30.9 53.7 26.9 C 52.0 19.4 46.7 13.4 39.0 10.3 C 33.5 7.9 28.5 8.0 22.9 10.4 C 7.7 16.9 3.2 35.0 13.8 47.0 C 18.5 52.4 23.6 54.7 31.6 54.9 Z M 20.3 45.5 C 19.7 45.5 19.2 45.2 18.6 44.6 C 16.9 42.9 17.4 41.7 21.7 37.0 C 24.0 34.5 26.1 31.5 26.4 30.2 C 26.8 28.6 27.7 27.7 29.3 27.3 C 30.5 27.0 33.6 24.9 36.0 22.7 C 40.5 18.5 43.3 17.5 44.2 19.9 C 45.1 22.2 44.8 22.7 41.1 26.4 C 39.1 28.3 37.1 31.1 36.7 32.5 C 36.1 34.2 34.6 35.7 31.9 37.1 C 29.7 38.3 26.5 40.7 24.7 42.4 C 22.5 44.5 21.3 45.5 20.3 45.5 Z M 151.5 45.4 C 150.1 45.7 147.9 44.4 145.0 41.4 C 142.8 39.1 140.2 37.1 139.2 37.1 C 137.0 37.1 134.5 34.7 134.5 32.5 C 134.5 31.3 133.0 29.4 130.3 27.1 C 126.3 23.8 124.9 20.8 126.6 19.1 C 128.0 17.7 130.7 18.9 134.9 22.8 C 137.3 25.1 139.8 27.0 140.3 27.0 C 141.6 27.0 144.7 30.1 144.7 31.5 C 144.7 32.1 146.6 34.4 148.9 36.7 C 152.2 39.9 153.2 41.5 153.0 43.0 C 152.8 44.4 152.3 45.2 151.5 45.4 Z M 151.5 45.4 "></path></clipPath><g clip-path="url(#clip0x608000ea5b80)"><image xlink:href="2D5DF9EB3DADFE688DE863307DD942A9.png" width="788.00" height="220.00" transform="matrix(0.92, 0.00, -0.00, -0.92, -23.0, 188.0)"></image></g></g></g></g></g></svg>