<?xml version="1.0" encoding="UTF-8" standalone="no"?><svg xmlns="http://www.w3.org/2000/svg" xmlns:xlink="http://www.w3.org/1999/xlink" clip-rule="evenodd" stroke-miterlimit="10" viewBox="0 0 94 121"><desc>SVG generated by Keynote</desc><defs></defs><g transform="matrix(1.00, 0.00, -0.00, -1.00, 0.0, 121.0)"><g><clipPath id="clip0x6000012aeb20"><path d="M 1.0 118.6 L 92.9 118.6 L 92.9 2.0 L 1.0 2.0 Z M 1.0 118.6 "></path></clipPath><g clip-path="url(#clip0x6000012aeb20)"><g><clipPath id="clip0x6000012a9420"><path d="M 1.0 2.0 L 93.0 2.0 L 93.0 119.0 L 1.0 119.0 Z M 1.0 2.0 "></path></clipPath><g clip-path="url(#clip0x6000012a9420)"><path d="M 1.0 5.9 L 40.5 5.9 L 40.5 2.0 L 1.0 2.0 Z M 1.0 5.9 " fill="#FFFEFE"></path></g></g></g></g><g><clipPath id="clip0x6000014a1740"><path d="M 1.0 2.0 L 93.0 2.0 L 93.0 119.0 L 1.0 119.0 Z M 1.0 2.0 "></path></clipPath><g clip-path="url(#clip0x6000014a1740)"><path d="M 47.1 102.9 C 49.2 102.8 51.0 104.4 51.0 106.5 C 51.1 108.5 49.4 110.2 47.4 110.3 C 45.3 110.4 43.5 108.7 43.5 106.7 C 43.4 104.6 45.1 102.9 47.1 102.9 " fill="#FFFEFE"></path><path d="M 40.1 104.0 C 40.8 104.0 43.0 103.7 44.4 102.6 C 45.9 101.5 47.5 99.2 47.5 98.9 C 47.6 99.2 49.2 101.5 49.8 102.0 C 50.9 102.9 52.1 103.8 55.0 104.1 L 55.0 100.2 C 54.4 100.1 53.3 99.8 52.3 99.0 C 51.3 98.2 50.2 96.6 49.9 95.5 C 49.6 94.3 49.5 93.4 49.5 92.7 L 49.6 85.1 L 45.6 85.1 L 45.7 92.7 C 45.7 93.4 45.5 94.8 45.2 95.6 C 44.8 96.3 43.9 98.3 42.4 99.2 C 42.0 99.5 41.2 100.1 40.1 100.1 L 40.1 104.0 " fill="#FFFEFE"></path><path d="M 47.5 114.0 C 47.6 113.9 50.9 111.7 53.7 109.0 C 54.6 108.1 57.0 105.3 57.0 101.8 C 57.0 98.7 55.2 96.5 55.0 96.3 C 54.3 95.5 51.9 93.6 50.5 93.4 L 50.5 89.4 C 52.3 89.8 55.2 90.9 56.9 92.5 C 58.5 94.2 59.9 96.2 60.5 98.7 C 61.3 101.6 60.7 105.0 59.8 106.9 C 58.6 109.4 56.5 111.9 53.9 113.9 L 47.5 118.6 L 41.1 113.9 C 38.5 111.8 36.4 109.4 35.2 106.8 C 34.3 104.9 33.8 101.6 34.5 98.7 C 35.1 96.2 36.5 94.2 38.2 92.5 C 39.9 90.8 42.8 89.7 44.6 89.4 L 44.5 93.4 C 43.1 93.6 40.7 95.5 40.1 96.2 C 39.8 96.4 38.1 98.7 38.1 101.8 C 38.1 105.2 40.4 108.1 41.3 108.9 C 44.0 111.7 47.4 113.9 47.5 114.0 " fill="#FFFEFE"></path><path d="M 29.1 81.7 C 29.0 82.4 28.6 82.8 27.9 82.8 C 27.1 82.8 26.7 82.1 26.7 80.8 C 26.7 79.9 26.9 79.0 28.0 79.0 C 28.7 79.0 29.0 79.5 29.1 80.2 L 31.2 80.2 C 31.0 78.4 29.8 77.4 28.0 77.4 C 25.8 77.4 24.5 78.8 24.5 80.9 C 24.5 83.1 26.0 84.4 27.8 84.4 C 29.8 84.4 30.9 83.4 31.1 81.7 L 29.1 81.7 " fill="#FFFEFE"></path><path d="M 31.7 84.2 L 33.6 84.2 L 33.6 77.6 L 31.7 77.6 Z M 31.7 84.2 " fill="#FFFEFE"></path><path d="M 36.0 79.6 C 36.0 79.0 36.5 78.6 37.0 78.6 C 37.3 78.6 37.5 78.8 37.7 79.0 L 39.5 79.0 C 39.2 77.8 38.0 77.4 36.8 77.4 C 35.3 77.4 34.1 78.3 34.1 80.0 C 34.1 81.5 35.3 82.6 36.8 82.6 C 38.6 82.6 39.7 81.3 39.7 79.6 L 36.0 79.6 Z M 37.8 80.5 C 37.8 81.0 37.4 81.4 36.9 81.4 C 36.3 81.4 36.0 81.1 36.0 80.5 L 37.8 80.5 " fill="#FFFEFE"></path><path d="M 39.6 82.4 L 41.5 82.4 L 42.4 79.4 L 43.2 82.4 L 45.0 82.4 L 43.4 77.6 L 41.3 77.6 L 39.6 82.4 " fill="#FFFEFE"></path><path d="M 46.7 79.6 C 46.7 79.0 47.2 78.6 47.7 78.6 C 48.0 78.6 48.2 78.8 48.4 79.0 L 50.2 79.0 C 49.9 77.8 48.7 77.4 47.5 77.4 C 46.0 77.4 44.8 78.3 44.8 80.0 C 44.8 81.5 46.0 82.6 47.5 82.6 C 49.3 82.6 50.4 81.3 50.4 79.6 L 46.7 79.6 Z M 48.5 80.5 C 48.5 81.0 48.1 81.4 47.6 81.4 C 47.0 81.4 46.7 81.1 46.7 80.5 L 48.5 80.5 " fill="#FFFEFE"></path><path d="M 50.8 84.2 L 52.7 84.2 L 52.7 77.6 L 50.8 77.6 Z M 50.8 84.2 " fill="#FFFEFE"></path><path d="M 56.8 77.6 L 56.7 78.1 C 56.2 77.6 55.6 77.4 54.9 77.4 C 54.0 77.4 53.2 77.9 53.2 78.9 C 53.2 81.1 56.6 80.1 56.6 81.0 C 56.6 81.4 56.2 81.4 56.0 81.4 C 55.7 81.4 55.3 81.4 55.3 80.9 L 53.5 80.9 C 53.5 82.0 54.2 82.6 56.1 82.6 C 58.4 82.6 58.5 81.7 58.5 80.6 L 58.5 78.3 C 58.5 78.0 58.5 77.9 58.8 77.7 L 58.8 77.6 L 56.8 77.6 Z M 56.6 79.7 C 56.0 79.4 55.1 79.6 55.1 78.9 C 55.1 78.7 55.4 78.5 55.7 78.5 C 56.4 78.5 56.6 79.1 56.6 79.7 " fill="#FFFEFE"></path><path d="M 59.2 82.4 L 61.0 82.4 L 61.0 81.7 C 61.4 82.2 61.9 82.6 62.6 82.6 C 63.9 82.6 64.5 81.8 64.5 80.5 L 64.5 77.6 L 62.6 77.6 L 62.6 80.1 C 62.6 80.6 62.4 81.0 61.9 81.0 C 61.3 81.0 61.1 80.7 61.1 80.0 L 61.1 77.6 L 59.2 77.6 L 59.2 82.4 " fill="#FFFEFE"></path><path d="M 68.5 77.6 L 68.5 78.2 C 68.1 77.6 67.7 77.4 67.1 77.4 C 65.6 77.4 64.9 78.5 64.9 79.9 C 64.9 81.5 65.8 82.6 66.9 82.6 C 67.5 82.6 67.9 82.4 68.4 81.9 L 68.4 84.2 L 70.3 84.2 L 70.3 77.6 L 68.5 77.6 Z M 68.4 80.0 C 68.4 80.5 68.2 81.1 67.6 81.1 C 67.0 81.1 66.8 80.5 66.8 79.9 C 66.8 79.4 66.9 78.8 67.5 78.8 C 68.2 78.8 68.4 79.4 68.4 80.0 " fill="#FFFEFE"></path><path d="M 21.1 69.4 L 21.1 76.0 L 23.7 76.0 L 24.9 71.9 L 26.1 76.0 L 28.7 76.0 L 28.7 69.4 L 26.7 69.4 L 26.7 71.4 L 26.8 72.4 L 26.9 73.7 L 26.9 73.7 L 25.7 69.4 L 24.2 69.4 L 23.0 73.7 L 22.9 73.7 L 23.0 72.7 L 23.1 71.6 L 23.1 69.4 L 21.1 69.4 " fill="#FFFEFE"></path><path d="M 31.0 71.4 C 31.0 70.8 31.4 70.4 31.9 70.4 C 32.3 70.4 32.5 70.6 32.7 70.8 L 34.5 70.8 C 34.2 69.6 32.9 69.2 31.8 69.2 C 30.3 69.2 29.1 70.1 29.1 71.8 C 29.1 73.3 30.3 74.4 31.8 74.4 C 33.6 74.4 34.7 73.1 34.6 71.4 L 31.0 71.4 Z M 32.7 72.3 C 32.7 72.8 32.3 73.2 31.9 73.2 C 31.3 73.2 31.0 72.9 31.0 72.3 L 32.7 72.3 " fill="#FFFEFE"></path><path d="M 38.2 69.4 C 35.7 69.2 35.4 69.4 35.4 71.1 L 35.4 73.1 L 34.7 73.1 L 34.7 74.2 L 35.4 74.2 L 35.4 75.7 L 37.3 75.7 L 37.3 74.2 L 38.2 74.2 L 38.2 73.1 L 37.3 73.1 L 37.3 71.4 C 37.3 70.9 37.4 70.8 37.9 70.8 L 38.2 70.8 L 38.2 69.4 " fill="#FFFEFE"></path><path d="M 38.7 74.2 L 40.5 74.2 L 40.5 73.2 L 40.5 73.2 C 40.7 74.0 41.2 74.4 41.9 74.4 C 42.0 74.4 42.1 74.3 42.2 74.3 L 42.2 72.4 C 42.1 72.4 41.9 72.5 41.8 72.5 C 41.0 72.5 40.6 72.1 40.6 71.1 L 40.6 69.4 L 38.7 69.4 L 38.7 74.2 " fill="#FFFEFE"></path><path d="M 44.9 74.4 C 46.6 74.4 47.7 73.4 47.7 71.8 C 47.7 70.1 46.5 69.2 44.9 69.2 C 43.4 69.2 42.2 70.1 42.2 71.7 C 42.2 73.4 43.3 74.4 44.9 74.4 M 44.1 71.8 C 44.1 70.9 44.5 70.5 44.9 70.5 C 45.5 70.5 45.8 70.9 45.8 71.8 C 45.8 72.6 45.5 73.1 45.0 73.1 C 44.3 73.1 44.1 72.4 44.1 71.8 " fill="#FFFEFE"></path><path d="M 49.8 74.2 L 49.8 73.5 L 49.8 73.5 C 50.1 74.1 50.8 74.4 51.3 74.4 C 52.8 74.4 53.5 73.2 53.5 71.8 C 53.5 69.9 52.3 69.2 51.2 69.2 C 50.7 69.2 50.3 69.5 50.0 69.9 L 50.0 67.7 L 48.1 67.7 L 48.1 74.2 L 49.8 74.2 Z M 51.6 71.8 C 51.6 72.6 51.2 72.9 50.7 72.9 C 50.3 72.9 49.9 72.5 49.9 71.8 C 49.9 71.2 50.2 70.7 50.7 70.7 C 51.2 70.7 51.6 71.1 51.6 71.8 " fill="#FFFEFE"></path><path d="M 57.3 69.4 L 57.2 69.9 C 56.7 69.4 56.1 69.2 55.4 69.2 C 54.5 69.2 53.7 69.7 53.7 70.7 C 53.7 72.9 57.1 71.9 57.1 72.8 C 57.1 73.2 56.7 73.2 56.5 73.2 C 56.2 73.2 55.9 73.1 55.8 72.7 L 54.0 72.7 C 54.0 73.8 54.7 74.4 56.6 74.4 C 58.9 74.4 59.0 73.5 59.0 72.4 L 59.0 70.1 C 59.0 69.8 59.0 69.7 59.3 69.5 L 59.3 69.4 L 57.3 69.4 Z M 57.1 71.5 C 56.5 71.2 55.7 71.4 55.7 70.7 C 55.7 70.5 55.9 70.3 56.3 70.3 C 56.9 70.3 57.2 70.9 57.1 71.5 " fill="#FFFEFE"></path><path d="M 59.8 74.2 L 61.5 74.2 L 61.5 73.2 L 61.6 73.2 C 61.8 74.0 62.3 74.4 63.0 74.4 C 63.1 74.4 63.2 74.3 63.3 74.3 L 63.3 72.4 C 63.2 72.4 63.0 72.5 62.9 72.5 C 62.1 72.5 61.7 72.1 61.7 71.1 L 61.7 69.4 L 59.8 69.4 L 59.8 74.2 " fill="#FFFEFE"></path><path d="M 65.5 70.7 L 65.5 69.4 L 63.6 69.4 L 63.6 76.0 L 65.5 76.0 L 65.5 72.7 L 66.8 74.2 L 69.0 74.2 L 67.2 72.3 L 69.2 69.4 L 66.9 69.4 L 65.9 71.1 L 65.5 70.7 " fill="#FFFEFE"></path></g></g><g><clipPath id="clip0x600000ead8c0"><path d="M 1.0 118.6 L 92.9 118.6 L 92.9 2.0 L 1.0 2.0 Z M 1.0 118.6 "></path></clipPath><g clip-path="url(#clip0x600000ead8c0)"><g><clipPath id="clip0x6000016aee80"><path d="M 1.0 2.0 L 93.0 2.0 L 93.0 119.0 L 1.0 119.0 Z M 1.0 2.0 "></path></clipPath><g clip-path="url(#clip0x6000016aee80)"><path d="M 70.9 70.9 C 70.9 70.7 71.0 70.5 71.1 70.4 C 71.3 70.3 71.4 70.3 71.6 70.3 C 71.9 70.3 72.2 70.4 72.2 70.7 C 72.2 71.5 69.3 70.9 69.3 72.8 C 69.3 74.0 70.5 74.4 71.5 74.4 C 72.6 74.4 73.8 74.1 73.9 72.8 L 72.2 72.8 C 72.2 73.0 72.1 73.1 72.0 73.2 C 71.9 73.3 71.8 73.3 71.6 73.3 C 71.3 73.3 71.1 73.2 71.1 73.0 C 71.1 72.3 74.1 72.7 74.1 70.9 C 74.1 69.9 73.3 69.2 71.5 69.2 C 70.4 69.2 69.2 69.6 69.1 70.9 L 70.9 70.9 " fill="#FFFEFE"></path><path d="M 57.3 17.2 L 57.3 24.7 C 57.3 27.6 55.9 29.1 53.1 29.1 L 46.7 29.1 L 46.7 2.0 L 50.2 2.0 L 50.2 12.9 L 53.1 12.9 C 55.9 12.9 57.3 14.4 57.3 17.2 M 53.8 17.5 C 53.8 16.5 53.4 16.0 52.5 16.0 L 50.2 16.0 L 50.2 26.0 L 52.3 26.0 C 53.3 26.0 53.8 25.5 53.8 24.5 L 53.8 17.5 " fill="#FFFFFF"></path><path d="M 67.4 5.1 L 62.6 5.1 L 62.6 29.1 L 59.1 29.1 L 59.1 2.0 L 67.4 2.0 L 67.4 5.1 " fill="#FFFFFF"></path><path d="M 79.9 2.0 L 79.9 24.7 C 79.9 27.6 78.5 29.1 75.7 29.1 L 73.1 29.1 C 70.3 29.1 68.9 27.6 68.9 24.7 L 68.9 2.0 L 72.4 2.0 L 72.4 13.0 L 76.4 13.0 L 76.4 2.0 L 79.9 2.0 Z M 76.4 16.1 L 72.4 16.1 L 72.4 24.5 C 72.4 25.5 72.9 26.0 73.9 26.0 L 74.9 26.0 C 75.9 26.0 76.4 25.5 76.4 24.5 L 76.4 16.1 " fill="#FFFFFF"></path><path d="M 88.6 13.1 L 92.8 29.1 L 89.4 29.1 L 87.0 18.1 L 86.9 18.1 L 84.3 29.1 L 80.8 29.1 L 85.1 13.1 L 85.1 2.0 L 88.6 2.0 L 88.6 13.1 " fill="#FFFFFF"></path></g></g></g></g><g><clipPath id="clip0x6000010a5a00"><path d="M 1.0 2.0 L 93.0 2.0 L 93.0 119.0 L 1.0 119.0 Z M 1.0 2.0 "></path></clipPath><g clip-path="url(#clip0x6000010a5a00)"><path d="M 12.0 9.0 L 12.0 25.6 C 12.0 27.9 10.6 29.1 7.8 29.1 L 5.2 29.1 C 2.4 29.1 1.0 27.9 1.0 25.6 L 1.0 9.0 L 4.5 9.0 L 4.5 16.4 L 8.5 16.4 L 8.5 9.0 L 12.0 9.0 Z M 8.5 18.8 L 4.5 18.8 L 4.5 25.5 C 4.5 26.2 5.0 26.6 6.0 26.6 L 7.0 26.6 C 8.0 26.6 8.5 26.2 8.5 25.5 L 8.5 18.8 " fill="#FFFEFE"></path><path d="M 18.9 29.1 L 15.4 29.1 L 15.4 9.0 L 18.9 9.0 L 18.9 22.1 L 22.6 13.0 L 22.6 9.0 L 26.1 9.0 L 26.1 29.1 L 22.6 29.1 L 22.6 19.4 L 18.9 29.1 " fill="#FFFEFE"></path><path d="M 40.5 11.9 L 40.5 25.2 C 40.5 27.8 38.8 29.1 35.6 29.1 L 29.5 29.1 L 29.5 9.0 L 36.3 9.0 C 39.1 9.0 40.5 10.0 40.5 11.9 M 37.0 12.3 C 37.0 11.7 36.5 11.5 35.6 11.5 L 33.0 11.5 L 33.0 26.6 L 35.4 26.6 C 36.5 26.6 37.0 26.2 37.0 25.2 L 37.0 12.3 " fill="#FFFEFE"></path><path d="M 8.0 38.6 L 8.0 37.1 C 8.0 36.1 7.5 35.5 6.6 35.5 L 5.8 35.5 C 4.9 35.5 4.4 36.1 4.4 37.1 L 4.4 54.5 C 4.4 55.5 4.9 56.0 5.8 56.0 L 6.5 56.0 C 7.5 56.0 8.0 55.5 8.0 54.5 L 8.0 51.7 L 11.4 51.7 L 11.4 54.7 C 11.4 57.8 10.0 59.3 7.3 59.3 L 5.1 59.3 C 2.4 59.3 1.0 57.8 1.0 54.7 L 1.0 36.8 C 1.0 33.8 2.4 32.2 5.1 32.2 L 7.3 32.2 C 10.0 32.2 11.4 33.8 11.4 36.8 L 11.4 38.6 L 8.0 38.6 " fill="#FFFEFE"></path><path d="M 24.8 36.8 L 24.8 54.7 C 24.8 57.8 23.4 59.3 20.7 59.3 L 17.4 59.3 C 14.6 59.3 13.3 57.8 13.3 54.7 L 13.3 36.8 C 13.3 33.8 14.7 32.2 17.4 32.2 L 20.6 32.2 C 23.4 32.2 24.8 33.8 24.8 36.8 M 21.3 37.1 C 21.3 36.1 20.9 35.5 20.0 35.5 L 18.2 35.5 C 17.2 35.5 16.7 36.1 16.7 37.1 L 16.7 54.5 C 16.7 55.5 17.2 56.0 18.2 56.0 L 19.8 56.0 C 20.8 56.0 21.3 55.5 21.3 54.5 L 21.3 37.1 " fill="#FFFEFE"></path><path d="M 30.4 59.3 L 26.6 59.3 L 26.6 32.2 L 30.0 32.2 L 29.7 50.0 L 32.3 37.1 L 34.9 37.1 L 37.5 50.0 L 37.1 32.2 L 40.5 32.2 L 40.5 59.3 L 36.7 59.3 L 33.6 43.4 L 30.4 59.3 " fill="#FFFEFE"></path><path d="M 50.9 32.2 L 50.9 35.5 L 45.8 35.5 L 45.8 44.5 L 50.3 44.5 L 50.3 47.8 L 45.8 47.8 L 45.8 56.0 L 50.9 56.0 L 50.9 59.3 L 42.4 59.3 L 42.4 32.2 L 50.9 32.2 " fill="#FFFEFE"></path><path d="M 68.0 36.8 L 68.0 54.7 C 68.0 57.8 66.6 59.3 63.9 59.3 L 60.6 59.3 C 57.9 59.3 56.5 57.8 56.5 54.7 L 56.5 36.8 C 56.5 33.8 57.9 32.2 60.6 32.2 L 63.8 32.2 C 66.6 32.2 68.0 33.8 68.0 36.8 M 64.5 37.1 C 64.5 36.1 64.1 35.5 63.2 35.5 L 61.4 35.5 C 60.4 35.5 59.9 36.1 59.9 37.1 L 59.9 54.5 C 59.9 55.5 60.4 56.0 61.4 56.0 L 63.0 56.0 C 64.0 56.0 64.5 55.5 64.5 54.5 L 64.5 37.1 " fill="#FFFFFF"></path><path d="M 77.6 59.3 L 77.6 37.3 C 77.6 36.1 77.1 35.5 76.2 35.5 L 74.8 35.5 C 73.8 35.5 73.3 36.1 73.3 37.3 L 73.3 59.3 L 69.9 59.3 L 69.9 37.4 C 69.9 34.0 71.2 32.2 74.0 32.2 L 76.8 32.2 C 79.6 32.2 81.0 34.0 81.0 37.4 L 81.0 59.3 L 77.6 59.3 " fill="#FFFFFF"></path><path d="M 92.8 56.0 L 92.8 59.3 L 82.9 59.3 L 82.9 56.0 L 86.1 56.0 L 86.1 32.2 L 89.6 32.2 L 89.6 56.0 L 92.8 56.0 " fill="#FFFFFF"></path><path d="M 1.0 66.4 L 92.9 66.4 L 92.9 62.5 L 1.0 62.5 Z M 1.0 66.4 " fill="#FFFEFE"></path></g></g></g></svg>